<svg xmlns="http://www.w3.org/2000/svg" viewBox="0 0 500 152.1" style="enable-background:new 0 0 500 152.1" xml:space="preserve"><path d="M0 0v152.1h500V0H0zm84.9 34.3c3.6-4.2 9.5-7.2 14.5-7.4.4 0 .8.3.8.7.6 5.2-1.3 11.1-5.1 15.6-3.6 4.3-8.8 7-13.7 7h-1c-.4 0-.7-.3-.7-.7-.8-5.9 2.1-11.7 5.2-15.2zm34.9 62.8c-.7 2.2-2.7 7.8-6.6 13.6-3.8 5.5-8.1 11.8-15.1 11.9-3.3.1-5.5-.9-7.6-1.8-2.2-.9-4.4-1.9-8-1.9-3.7 0-6.1 1-8.4 2-2 .9-4.2 1.8-7.1 1.9h-.3c-6.2 0-10.7-5.8-15.2-12.3-9-12.9-14.1-34.3-6-48.4 4.3-7.4 12-12.1 20.2-12.2h.2c3.5 0 6.8 1.3 9.8 2.5 2.2.9 4.1 1.6 5.6 1.6 1.3 0 3.2-.7 5.4-1.6 3.2-1.2 7.1-2.8 11.2-2.8.5 0 1.1 0 1.6.1 3.5.2 12.2 1.4 17.8 9.7.1.2.2.4.1.6s-.2.4-.3.5h-.1c-1.7 1-9.9 6.6-9.8 17.3.1 13.1 10.9 17.8 12.2 18.4h.1c.2.1.4.5.3.9zm36.6-70.6h9.4c2.5 0 4.7.5 6.6 1.5s3.4 2.4 4.5 4.2c1.1 1.8 1.6 3.8 1.6 6.1s-.5 4.3-1.6 6.1c-1.1 1.8-2.6 3.2-4.5 4.2s-4.1 1.5-6.6 1.5h-9.4V26.5zm9.3 22.2c2.2 0 4.1-.4 5.8-1.3 1.7-.9 3-2.1 3.9-3.7.9-1.6 1.4-3.3 1.4-5.4s-.4-3.8-1.4-5.4c-.9-1.6-2.2-2.8-3.9-3.6-1.7-.9-3.6-1.3-5.8-1.3h-7.5v20.6c-.1.1 7.5.1 7.5.1zm20.6.5c-1.4-.8-2.4-1.8-3.2-3.2s-1.1-2.9-1.1-4.6.4-3.3 1.1-4.6c.8-1.4 1.8-2.4 3.2-3.2 1.4-.8 2.9-1.2 4.5-1.2s3.2.4 4.5 1.2c1.4.8 2.4 1.8 3.2 3.2s1.1 2.9 1.1 4.6-.4 3.3-1.1 4.6c-.8 1.4-1.8 2.4-3.2 3.2-1.4.8-2.9 1.2-4.5 1.2s-3.2-.4-4.5-1.2zm8.2-1.3c1.1-.6 1.9-1.5 2.6-2.7.6-1.1.9-2.4.9-3.9s-.3-2.7-.9-3.9c-.6-1.1-1.5-2-2.6-2.7-1.1-.6-2.3-1-3.6-1s-2.6.3-3.6 1c-1.1.6-1.9 1.5-2.6 2.7-.6 1.1-.9 2.4-.9 3.9s.3 2.7.9 3.9c.6 1.1 1.5 2 2.6 2.7 1.1.6 2.3 1 3.6 1s2.5-.4 3.6-1zm35.3-15.4L223 50.2h-1.6l-6-15.4-6 15.4h-1.6l-6.7-17.7h1.6l5.9 15.8 6-15.8h1.5l6 15.8 6-15.8h1.7zm17.8 1.8c1.3 1.3 1.9 3.2 1.9 5.6v10.4h-1.7V40c0-2-.5-3.5-1.5-4.5s-2.4-1.6-4.2-1.6c-2.1 0-3.7.6-4.9 1.9-1.2 1.2-1.8 2.9-1.8 5v9.4h-1.7V32.5h1.6v3.8c.6-1.2 1.5-2.2 2.7-2.9 1.2-.7 2.6-1 4.3-1 2.3 0 4 .6 5.3 1.9zm9-9.3h1.7v25.2h-1.7V25zm11.2 24.2c-1.4-.8-2.4-1.8-3.2-3.2-.8-1.4-1.1-2.9-1.1-4.6s.4-3.3 1.1-4.6c.8-1.4 1.8-2.4 3.2-3.2 1.4-.8 2.9-1.2 4.5-1.2s3.2.4 4.5 1.2c1.4.8 2.4 1.8 3.2 3.2.8 1.4 1.1 2.9 1.1 4.6s-.4 3.3-1.1 4.6c-.8 1.4-1.8 2.4-3.2 3.2-1.4.8-2.9 1.2-4.5 1.2s-3.2-.4-4.5-1.2zm8.2-1.3c1.1-.6 1.9-1.5 2.5-2.7.6-1.1.9-2.4.9-3.9s-.3-2.7-.9-3.9c-.6-1.1-1.5-2-2.5-2.7-1.1-.6-2.3-1-3.6-1s-2.6.3-3.6 1-1.9 1.5-2.5 2.7c-.6 1.1-.9 2.4-.9 3.9s.3 2.7.9 3.9c.6 1.1 1.5 2 2.5 2.7 1.1.6 2.3 1 3.6 1s2.5-.4 3.6-1zM297.4 34c1.2 1.1 1.8 2.8 1.8 4.9v11.2h-1.6v-3.2c-.6 1-1.4 1.8-2.5 2.4s-2.4.9-3.9.9c-2 0-3.5-.5-4.7-1.4-1.1-.9-1.7-2.2-1.7-3.7s.5-2.7 1.6-3.6c1-.9 2.7-1.4 5-1.4h6.1v-1.4c0-1.7-.5-2.9-1.3-3.8-.9-.9-2.2-1.3-3.9-1.3-1.2 0-2.3.2-3.4.6-1.1.4-2 1-2.7 1.6l-.9-1.2c.9-.8 2-1.4 3.2-1.8s2.5-.7 3.9-.7c2.2.3 3.8.8 5 1.9zm-2.2 13.9c1-.7 1.8-1.7 2.3-3v-3.3h-6c-1.7 0-3 .3-3.8 1-.8.6-1.2 1.5-1.2 2.6s.4 2.1 1.3 2.7c.9.7 2.1 1 3.6 1 1.5.1 2.7-.3 3.8-1zM322 25v25.2h-1.7V46c-.7 1.4-1.7 2.4-3 3.2-1.3.8-2.7 1.1-4.3 1.1s-3.1-.4-4.5-1.2c-1.3-.8-2.4-1.8-3.1-3.2-.8-1.4-1.1-2.9-1.1-4.7s.4-3.3 1.1-4.7c.8-1.4 1.8-2.4 3.1-3.2 1.3-.8 2.8-1.1 4.5-1.1s3 .4 4.3 1.1 2.2 1.8 3 3.1V25h1.7zm-5.2 22.9c1.1-.6 1.9-1.5 2.5-2.7.6-1.1.9-2.4.9-3.9s-.3-2.7-.9-3.9c-.6-1.1-1.5-2-2.5-2.7-1.1-.6-2.3-1-3.6-1s-2.6.3-3.6 1-1.9 1.5-2.5 2.7c-.6 1.1-.9 2.4-.9 3.9s.3 2.7.9 3.9c.6 1.1 1.5 2 2.5 2.7 1.1.6 2.3 1 3.6 1s2.5-.4 3.6-1zm23.4 1.3c-1.4-.8-2.4-1.8-3.2-3.2-.8-1.4-1.1-2.9-1.1-4.6s.4-3.3 1.1-4.6c.8-1.4 1.8-2.4 3.2-3.2 1.4-.8 2.9-1.2 4.5-1.2s3.2.4 4.5 1.2c1.4.8 2.4 1.8 3.2 3.2.8 1.4 1.1 2.9 1.1 4.6s-.4 3.3-1.1 4.6c-.8 1.4-1.8 2.4-3.2 3.2-1.4.8-2.9 1.2-4.5 1.2s-3.1-.4-4.5-1.2zm8.2-1.3c1.1-.6 1.9-1.5 2.5-2.7.6-1.1.9-2.4.9-3.9s-.3-2.7-.9-3.9c-.6-1.1-1.5-2-2.5-2.7-1.1-.6-2.3-1-3.6-1s-2.6.3-3.6 1-1.9 1.5-2.5 2.7c-.6 1.1-.9 2.4-.9 3.9s.3 2.7.9 3.9c.6 1.1 1.5 2 2.5 2.7 1.1.6 2.3 1 3.6 1s2.5-.4 3.6-1zm24.4-13.6c1.3 1.3 1.9 3.2 1.9 5.6v10.3H373V40c0-2-.5-3.5-1.5-4.5s-2.4-1.6-4.2-1.6c-2.1 0-3.7.6-4.9 1.9-1.2 1.2-1.8 2.9-1.8 5v9.4h-1.7V32.5h1.6v3.8c.6-1.2 1.5-2.2 2.7-2.9 1.2-.7 2.6-1 4.3-1 2.3 0 4 .6 5.3 1.9zm26.4 14.8c-.4.4-1 .7-1.6.9-.6.2-1.3.3-2 .3-1.5 0-2.7-.4-3.6-1.3-.8-.8-1.3-2-1.3-3.5V34h-3.3v-1.5h3.3v-3.9h1.7v3.9h5.6V34h-5.6v11.4c0 1.2.3 2 .8 2.6.5.6 1.4.9 2.5.9s2-.3 2.8-1l.7 1.2zm18.7-14.8c1.3 1.3 1.9 3.2 1.9 5.6v10.3h-1.7V40c0-2-.5-3.5-1.5-4.5s-2.4-1.6-4.2-1.6c-2.1 0-3.7.6-4.9 1.9-1.2 1.2-1.8 2.9-1.8 5v9.4H404V25h1.7v11.2c.6-1.2 1.5-2.2 2.7-2.8 1.2-.7 2.6-1 4.2-1 2.2 0 4 .6 5.3 1.9zm23.9 7.5h-15.2c0 1.4.4 2.6 1 3.7.7 1.1 1.5 1.9 2.7 2.5s2.4.9 3.8.9c1.1 0 2.2-.2 3.2-.6 1-.4 1.8-1 2.5-1.8l1 1.1c-.8.9-1.7 1.6-2.9 2.1s-2.4.8-3.8.8c-1.8 0-3.3-.4-4.7-1.2s-2.5-1.8-3.2-3.2c-.8-1.4-1.2-2.9-1.2-4.7s.4-3.3 1.1-4.6c.7-1.4 1.8-2.4 3-3.2s2.7-1.2 4.3-1.2 3 .4 4.3 1.1 2.3 1.8 3 3.2c.7 1.4 1.1 2.9 1.1 4.6v.5zM430 34.7c-1 .5-1.8 1.3-2.4 2.3-.6 1-1 2.1-1 3.4h13.6c-.1-1.3-.4-2.4-1-3.4s-1.4-1.8-2.4-2.3c-1-.6-2.1-.8-3.4-.8s-2.4.2-3.4.8zm-248.5 68.1h-20.3l-4 9.4h-7.8l18.3-40.6h7.4l18.3 40.6h-7.9l-4-9.4zm-2.5-6L171.3 79l-7.6 17.8H179zm44.2-14c2.4 1.3 4.2 3.2 5.6 5.6 1.4 2.4 2 5.2 2 8.3s-.7 5.9-2 8.3c-1.4 2.4-3.2 4.3-5.6 5.6s-5.1 2-8.1 2c-4.2 0-7.5-1.4-9.9-4.2v15H198V81.2h6.9v4.1c1.2-1.5 2.7-2.6 4.4-3.3 1.8-.7 3.7-1.1 5.8-1.1 3-.1 5.7.6 8.1 1.9zm-2.3 20.9c1.7-1.8 2.6-4.1 2.6-7s-.9-5.2-2.6-7-3.9-2.7-6.6-2.7c-1.7 0-3.3.4-4.7 1.2s-2.5 1.9-3.3 3.4c-.8 1.5-1.2 3.2-1.2 5.1s.4 3.6 1.2 5.1c.8 1.5 1.9 2.6 3.3 3.4 1.4.8 3 1.2 4.7 1.2 2.7-.1 4.9-1 6.6-2.7zM263 82.8c2.4 1.3 4.2 3.2 5.6 5.6 1.4 2.4 2 5.2 2 8.3s-.7 5.9-2 8.3c-1.4 2.4-3.2 4.3-5.6 5.6s-5.1 2-8.1 2c-4.2 0-7.5-1.4-9.9-4.2v15h-7.2V81.2h6.9v4.1c1.2-1.5 2.7-2.6 4.4-3.3 1.8-.7 3.7-1.1 5.8-1.1 3-.1 5.7.6 8.1 1.9zm-2.3 20.9c1.7-1.8 2.6-4.1 2.6-7s-.9-5.2-2.6-7-3.9-2.7-6.6-2.7c-1.7 0-3.3.4-4.7 1.2s-2.5 1.9-3.3 3.4c-.8 1.5-1.2 3.2-1.2 5.1s.4 3.6 1.2 5.1c.8 1.5 1.9 2.6 3.3 3.4 1.4.8 3 1.2 4.7 1.2 2.7-.1 4.9-1 6.6-2.7zm37.1 7.7c-2.9-.9-5.2-2.1-6.9-3.5l2.6-5.9c1.7 1.3 3.7 2.4 6.1 3.2 2.4.8 4.8 1.2 7.3 1.2 3 0 5.3-.5 6.8-1.4 1.5-1 2.2-2.2 2.2-3.8 0-1.2-.4-2.1-1.2-2.9s-1.9-1.3-3.2-1.8c-1.3-.4-3-.9-5.2-1.4-3.1-.7-5.6-1.5-7.5-2.2-1.9-.7-3.6-1.9-4.9-3.4-1.4-1.6-2.1-3.7-2.1-6.3 0-2.2.6-4.3 1.8-6.1 1.2-1.8 3-3.3 5.5-4.4 2.5-1.1 5.5-1.6 9-1.6 2.5 0 4.9.3 7.3.9s4.5 1.5 6.2 2.7l-2.4 5.9c-1.8-1-3.6-1.8-5.6-2.4s-3.8-.8-5.6-.8c-3 0-5.2.5-6.6 1.5s-2.2 2.3-2.2 4c0 1.2.4 2.1 1.2 2.8.8.7 1.9 1.3 3.2 1.7 1.3.4 3 .9 5.2 1.4 3 .7 5.5 1.4 7.4 2.2 1.9.8 3.6 1.9 5 3.4 1.4 1.6 2.1 3.6 2.1 6.3 0 2.2-.6 4.3-1.8 6.1-1.2 1.8-3.1 3.3-5.5 4.3-2.5 1.1-5.5 1.6-9 1.6-3.3 0-6.3-.4-9.2-1.3zm50.8-.9c-.9.7-1.9 1.2-3.1 1.6a16 16 0 0 1-3.9.5c-3.4 0-6-.9-7.9-2.7-1.9-1.8-2.8-4.4-2.8-7.8V87.2h-5.1v-5.8h5.1v-7.1h7.2v7.1h8.3v5.8h-8.3v14.7c0 1.5.4 2.7 1.1 3.4.7.8 1.8 1.2 3.2 1.2 1.6 0 3-.4 4.1-1.3l2.1 5.3zm10.4 0c-2.5-1.3-4.5-3.2-5.9-5.7s-2.1-5.2-2.1-8.2.7-5.8 2.1-8.2 3.4-4.3 5.9-5.6c2.5-1.3 5.3-2 8.5-2s6 .7 8.5 2 4.5 3.2 5.9 5.6c1.4 2.4 2.1 5.1 2.1 8.2s-.7 5.8-2.1 8.2-3.4 4.3-5.9 5.7c-2.5 1.3-5.4 2-8.5 2s-6-.6-8.5-2zm15.1-6.8c1.7-1.8 2.6-4.1 2.6-7s-.9-5.2-2.6-7-3.9-2.7-6.6-2.7-4.9.9-6.6 2.7-2.6 4.1-2.6 7 .9 5.2 2.6 7 3.9 2.7 6.6 2.7 4.9-1 6.6-2.7zm34.8-22.9v6.9c-.6-.1-1.2-.2-1.7-.2-2.8 0-5 .8-6.6 2.5-1.6 1.6-2.4 4-2.4 7.1v15H391v-31h6.9v4.5c2.1-3.2 5.7-4.8 11-4.8zM443.8 99h-24.3c.4 2.3 1.5 4.1 3.3 5.4s4 2 6.7 2c3.4 0 6.2-1.1 8.4-3.4l3.9 4.5c-1.4 1.7-3.1 2.9-5.3 3.8s-4.5 1.3-7.2 1.3c-3.4 0-6.4-.7-9-2s-4.6-3.2-6-5.7-2.1-5.2-2.1-8.2.7-5.7 2.1-8.2 3.3-4.3 5.7-5.7c2.4-1.3 5.2-2 8.2-2s5.7.7 8.1 2 4.2 3.2 5.6 5.6c1.3 2.4 2 5.2 2 8.4 0 .5-.1 1.2-.1 2.2zm-21.5-10.3c-1.6 1.4-2.6 3.2-2.9 5.5H437c-.3-2.2-1.3-4.1-2.8-5.4-1.6-1.4-3.6-2.1-5.9-2.1s-4.4.6-6 2z" style="fill:#fff"/></svg>