<?xml version="1.0" encoding="UTF-8"?><svg id="Layer_1" xmlns="http://www.w3.org/2000/svg" viewBox="0 0 174.04 42.84"><path d="M88.88,9.4h13.01v3.36h-4.36c-.13,0-.26,.05-.35,.15-.09,.09-.15,.22-.15,.35l.03,20.2h-3.35V13.25c0-.28-.22-.5-.5-.5h-4.36l.03-3.36Zm-4.4,0l4.17,24.06h-3.3l-.35-2.38c-.04-.24-.25-.43-.49-.43h-4.9c-.25,0-.46,.18-.49,.43l-.36,2.38h-3.3l4.34-24.06h4.69Zm-.21,17.82l-1.48-10.11h0l-.22-1.34c-.04-.25-.26-.43-.51-.42-.25,0-.46,.2-.48,.45l-.14,1.32-1.62,10.1c-.02,.14,.02,.29,.11,.4,.09,.11,.23,.18,.38,.18h3.46c.14,0,.28-.06,.38-.17,.1-.11,.14-.26,.12-.4Zm23.74,2.3v-6.3c0-.28,.22-.5,.5-.5h7.06l-.03-3.36h-7.03c-.28,0-.5-.22-.5-.5v-5.62c0-.28,.22-.5,.5-.5h7.02v-3.36h-10.84l-.04,24.06h10.92v-3.43h-7.06c-.28,0-.5-.22-.5-.5Zm-37.74-2.56c0,.88-.31,1.73-.89,2.39-.56,.7-1.41,1.1-2.31,1.09-.86,.01-1.68-.35-2.26-.99-.62-.68-.94-1.58-.91-2.5V15.74c-.01-.85,.27-1.67,.79-2.34,.57-.72,1.46-1.12,2.38-1.08,.88-.01,1.72,.36,2.3,1.03,.59,.65,.91,1.51,.9,2.39v1.3h3.32v-1.3c.01-1.19-.29-2.37-.87-3.41-.56-1-1.37-1.83-2.35-2.43-1-.6-2.14-.91-3.3-.9-1.17-.01-2.32,.3-3.32,.92-.98,.6-1.79,1.44-2.34,2.45-.57,1.03-.87,2.19-.85,3.37l-.04,11.23c-.02,1.21,.28,2.4,.87,3.46,.57,1.01,1.38,1.86,2.37,2.47,1,.61,2.15,.93,3.32,.91,1.16,.02,2.31-.3,3.3-.91,.98-.61,1.8-1.46,2.37-2.47,.6-1.05,.9-2.25,.89-3.46v-1.3h-3.36v1.3ZM154.12,9.4l.18,13.68c0,.24-.16,.45-.4,.5-.23,.05-.47-.07-.56-.29l-5.95-13.89h-2.7l.04,24.06h3.21l-.25-12.74c0-.24,.16-.45,.39-.5,.23-.05,.47,.06,.57,.27l6.09,12.96h2.53l-.04-24.06h-3.1Zm19.91,7.57v-1.3c.02-1.19-.28-2.35-.87-3.39-.57-.99-1.38-1.81-2.36-2.4-1.01-.59-2.16-.9-3.33-.88-1.15,0-2.27,.3-3.25,.9-.99,.6-1.81,1.43-2.38,2.43-.59,1.01-.89,2.16-.89,3.33v11.41c-.01,1.19,.29,2.37,.89,3.4,.57,1,1.39,1.84,2.37,2.44,.98,.6,2.11,.91,3.27,.9,1.16,.01,2.31-.3,3.3-.9,.98-.6,1.79-1.44,2.37-2.43,.59-1.03,.9-2.21,.89-3.4v-5.66h-6.06v3.39h2.2c.28,0,.5,.22,.5,.5v1.76c.02,.89-.3,1.74-.91,2.39-.59,.64-1.42,1-2.29,.99-.85,0-1.67-.36-2.24-1-.61-.64-.94-1.49-.93-2.38V15.67c0-.88,.33-1.73,.95-2.36,.56-.64,1.37-1.02,2.22-1.02,.89-.01,1.74,.38,2.3,1.07,.61,.72,.93,1.65,.9,2.59v1.01h3.36Zm-36.87-7.57l-.03,24.06h3.39l-.04-24.06h-3.32Zm-5.86,11.54c-.1,.09-.17,.21-.18,.35,0,.14,.04,.27,.13,.37,1.19,1.29,1.85,2.99,1.82,4.74l.03,7.06h-3.39v-7.06c0-.97-.37-1.91-1.06-2.6-.67-.72-1.62-1.12-2.61-1.11h-2.38c-.28,0-.5,.22-.5,.5l-.03,10.27h-3.36l.07-24.05h6.92c1.17,0,2.32,.3,3.33,.89,1,.58,1.84,1.4,2.43,2.38,.61,1.01,.92,2.18,.9,3.36,.01,.76-.11,1.51-.36,2.22-.21,.6-.51,1.16-.87,1.68-.26,.37-.55,.71-.89,1.01Zm-1.19-4.91c0-.88-.36-1.73-1-2.34-.62-.63-1.47-.98-2.35-.97h-3.1c-.28,0-.5,.22-.5,.5v5.65c0,.28,.22,.5,.5,.5h3.1c.87,0,1.71-.35,2.33-.97,.66-.61,1.03-1.48,1.02-2.38Zm-90.95-1.16c-4.35-3.35-8.67-6.73-13-10.1-2.04-1.58-4.08-3.17-6.15-4.77-.31,.23-.61,.44-.9,.67-2.41,1.89-4.83,3.78-7.25,5.66-3.74,2.92-7.49,5.84-11.25,8.74C.2,15.35-.03,15.83,0,16.34c.03,3.39,.03,6.77,.03,10.15,0,5.16,0,10.31,0,15.47,0,.51,.03,.82,.7,.84,4.5,.23,8.99-.56,13.13-2.31,1.7-.74,3.31-1.7,4.91-2.53-.06-.26-.06-.32-.09-.35-.39-.39-.82-.75-1.18-1.16-.02-.03-.04-.07-.07-.09-.26-.3-.71-.33-1-.07-3.92,2.15-8.27,3.4-12.74,3.66-1.16,.1-1.16,.06-1.16-1.14,0-7.03,0-14.07-.03-21.1-.03-.61,.25-1.18,.76-1.52,4.97-3.84,9.93-7.69,14.88-11.55,1.88-1.46,1.86-1.47,3.74,0,4.68,3.65,9.35,7.31,14.08,10.9,1.13,.86,1.86,1.72,1.56,3.2-.03,.32-.04,.63,0,.95,0,6.48-.01,12.96,.02,19.44,0,.73-.22,.95-.91,.85-.5-.08-1-.1-1.5-.16-4.38-.36-8.61-1.76-12.35-4.07-3.23-2.06-5.65-5.18-6.86-8.82-.17-.41-.06-.89,.28-1.18,.15-.18,.28-.37,.41-.57,1.9-2.99,1.02-6.96-1.97-8.86-1.54-.93-3.54-.49-4.56,1-.89,1.2-1.25,2.72-1,4.2,.4,2.48,1.48,4.44,4.09,5.21,.26,.13,.46,.37,.54,.66,1.24,4.08,3.77,7.64,7.21,10.16,2.79,2,5.93,3.47,9.25,4.32,3,.73,6.09,1.05,9.18,.94,.48,0,.67-.19,.64-.66-.02-.23,.01-.48,.01-.71h0c0-8.28-.02-16.56,.01-24.83,.04-.68-.28-1.34-.85-1.72Zm-17.98,17.84h0l1.61,1.31c1.57-1.97,2.77-4.22,3.53-6.62,.11-.33,.35-.59,.66-.74,.8-.28,1.49-.83,1.94-1.55,1.51-2.26,1.71-4.82,1.67-7.43-.04-.18-.11-.36-.2-.52-.24,.46-.41,.95-.5,1.46-.28,1.31-.55,2.63-.84,3.94-.09,.4-.32,.76-.76,.55-.23-.2-.36-.5-.34-.81,.1-.62,.23-1.24,.39-1.85,.23-1.11,.47-2.22,.66-3.33,.03-.18-.19-.41-.3-.61-.15,.14-.38,.25-.45,.43-.12,.35-.21,.71-.27,1.07-.31,1.41-.6,2.83-.95,4.24-.06,.22-.4,.37-.62,.55-.16-.24-.3-.49-.42-.75-.05-.13,.05-.31,.08-.46,.32-1.52,.65-3.04,.93-4.57,.05-.26-.16-.57-.24-.86-.19,.24-.49,.45-.56,.71-.39,1.59-.69,3.19-1.09,4.78-.07,.27-.43,.46-.65,.69-.14-.29-.42-.61-.39-.88,.11-.86,.35-1.7,.52-2.55,.2-.96,.39-1.93,.59-2.89l-.21-.07c-.07,.03-.13,.08-.19,.13-.13,.17-.25,.34-.35,.53-1.11,1.94-1.64,4.15-1.54,6.38,.05,.86,.33,1.69,.81,2.41,.51,.54,.6,1.36,.22,1.99-.9,1.75-1.82,3.48-2.78,5.32Z" style="fill:#fff;"/></svg>