<svg xmlns="http://www.w3.org/2000/svg" viewBox="0 0 500 152.1" style="enable-background:new 0 0 500 152.1" xml:space="preserve"><path d="M276 96.1c0 2.6-.9 4.7-2.6 6.3-1.7 1.6-3.9 2.4-6.6 2.4s-4.9-.8-6.7-2.4-2.6-3.7-2.6-6.3.9-4.6 2.6-6.2 3.9-2.4 6.7-2.4 4.9.8 6.6 2.4 2.6 3.7 2.6 6.2zm-23-50.9c.6-1.1.9-2.4.9-3.9s-.3-2.7-.9-3.9c-.6-1.1-1.5-2-2.6-2.7-1.1-.6-2.3-1-3.7-1s-2.6.3-3.6 1c-1.1.6-1.9 1.5-2.6 2.7-.6 1.1-.9 2.4-.9 3.9s.3 2.7.9 3.9c.6 1.1 1.5 2 2.6 2.7 1.1.6 2.3 1 3.6 1s2.6-.3 3.7-1 2-1.5 2.6-2.7zm58.9 0c.6-1.1.9-2.4.9-3.9s-.3-2.7-.9-3.9c-.6-1.1-1.5-2-2.5-2.7-1.1-.6-2.3-1-3.6-1s-2.6.3-3.6 1-1.9 1.5-2.5 2.7c-.6 1.1-.9 2.4-.9 3.9s.3 2.7.9 3.9c.6 1.1 1.5 2 2.5 2.7 1.1.6 2.3 1 3.6 1s2.6-.3 3.6-1 1.8-1.5 2.5-2.7zm-32.2-10.5c-1-.6-2.1-.8-3.4-.8s-2.4.3-3.4.8-1.8 1.3-2.4 2.3c-.6 1-1 2.1-1 3.4h13.6c-.1-1.3-.4-2.4-1-3.4-.6-.9-1.4-1.7-2.4-2.3zM230 87.6c-2.6 0-4.8.9-6.4 2.6s-2.5 4-2.5 6.9.8 5.1 2.5 6.9c1.7 1.7 3.8 2.6 6.4 2.6s4.8-.9 6.5-2.6c1.7-1.7 2.6-4 2.6-6.9s-.9-5.1-2.6-6.9-3.9-2.6-6.5-2.6zm-10.5-45c-.8.6-1.2 1.5-1.2 2.6s.4 2.1 1.3 2.7c.9.7 2.1 1 3.6 1s2.7-.3 3.8-1 1.8-1.7 2.3-3v-3.3h-6c-1.8.1-3.1.4-3.8 1zm-37.6 0c-.8.6-1.2 1.5-1.2 2.6s.4 2.1 1.3 2.7c.9.7 2.1 1 3.6 1s2.7-.3 3.8-1 1.8-1.7 2.3-3v-3.3h-6c-1.7.1-3 .4-3.8 1zm145.7 46.6c-1.5-1.4-3.5-2-5.8-2s-4.2.7-5.8 2c-1.6 1.3-2.5 3.1-2.9 5.4h17.2c-.2-2.2-1.1-4-2.7-5.4zm-134.2-1.6c-2.6 0-4.8.9-6.4 2.6s-2.5 4-2.5 6.9.8 5.1 2.5 6.9c1.7 1.7 3.8 2.6 6.4 2.6s4.8-.9 6.5-2.6c1.7-1.7 2.6-4 2.6-6.9s-.9-5.1-2.6-6.9-3.8-2.6-6.5-2.6zm-44.8-59.2-6.2 13.7h12.5l-6.3-13.7zm251.5 8.7c-.6-1-1.4-1.8-2.4-2.3-1-.6-2.1-.8-3.4-.8s-2.4.3-3.4.8-1.8 1.3-2.4 2.3c-.6 1-1 2.1-1 3.4h13.6c-.1-1.3-.4-2.4-1-3.4zm-16.5 43.7c-1.7-1.4-4.1-2-7.3-2h-8.6v15.8h8.6c3.2 0 5.6-.7 7.3-2s2.5-3.3 2.5-5.8-.9-4.7-2.5-6zM500 0v152.1H0V0h500zM364.9 50.2h1.7v-9.4c0-2.1.6-3.8 1.8-5 1.2-1.2 2.8-1.9 4.9-1.9 1.8 0 3.2.5 4.2 1.6S379 38 379 40v10.2h1.7V39.9c0-2.4-.6-4.3-1.9-5.6-1.3-1.3-3-1.9-5.3-1.9-1.6 0-3 .3-4.2 1-1.2.7-2.1 1.6-2.7 2.8V25h-1.7v25.2zm-45.1 0h1.7v-9.4c0-2.1.6-3.8 1.8-5 1.2-1.2 2.8-1.9 4.9-1.9 1.8 0 3.2.5 4.2 1.6s1.5 2.6 1.5 4.5v10.2h1.7V39.9c0-2.4-.6-4.3-1.9-5.6-1.3-1.3-3-1.9-5.3-1.9-1.6 0-3.1.3-4.3 1-1.2.7-2.1 1.7-2.7 2.9v-3.8h-1.6v17.7zm-58.9 0h1.7V25h-1.7v25.2zm-31.6-11.3v1.4h-6.1c-2.3 0-4 .5-5 1.4-1.1.9-1.6 2.1-1.6 3.6s.6 2.7 1.7 3.7c1.1.9 2.7 1.4 4.7 1.4 1.5 0 2.8-.3 3.9-.9 1.1-.6 1.9-1.4 2.5-2.4v3.2h1.6V39c0-2.2-.6-3.8-1.8-4.9-1.2-1.1-2.9-1.7-5.1-1.7-1.4 0-2.7.2-3.9.7-1.2.4-2.3 1.1-3.2 1.8l.9 1.2c.8-.7 1.7-1.2 2.7-1.6 1.1-.4 2.2-.6 3.4-.6 1.7 0 3 .4 3.9 1.3s1.4 2.1 1.4 3.7zm-29.4-12.1c0 .4.1.7.4 1s.6.4 1 .4.7-.1 1-.4c.3-.3.4-.6.4-1s-.1-.7-.4-1-.6-.4-1-.4-.7.1-1 .4c-.2.3-.4.7-.4 1zm.6 5.7v17.7h1.7V32.5h-1.7zm-8.7 6.4v1.4h-6.1c-2.3 0-4 .5-5 1.4-1.1.9-1.6 2.1-1.6 3.6s.6 2.7 1.7 3.7c1.1.9 2.7 1.4 4.7 1.4 1.5 0 2.8-.3 3.9-.9 1.1-.6 1.9-1.4 2.5-2.4v3.2h1.6V39c0-2.2-.6-3.8-1.8-4.9-1.2-1.1-2.9-1.7-5.1-1.7-1.4 0-2.7.2-3.9.7-1.2.4-2.3 1.1-3.2 1.8l.9 1.2c.8-.7 1.7-1.2 2.7-1.6 1.1-.4 2.2-.6 3.4-.6 1.7 0 3 .4 3.9 1.3s1.4 2.1 1.4 3.7zm-32-6.4 8 17.7h1.7l8-17.7h-1.7l-7.1 15.8-7.1-15.8h-1.8zm-23 17.7h1.9l3-6.7h13.8l3.1 6.7h1.9l-10.9-23.8h-1.7l-11.1 23.8zm4.5 42.1c0-2.7.6-5.1 1.8-7.3s2.9-3.8 5.1-4.9c2.2-1.2 4.7-1.8 7.4-1.8 4.3 0 7.9 1.5 10.9 4.5l4.6-4.5c-1.9-2.1-4.1-3.7-6.9-4.8s-5.8-1.6-9.1-1.6c-4.1 0-7.8.9-11 2.6s-5.8 4.2-7.7 7.3c-1.9 3.1-2.8 6.6-2.8 10.5s.9 7.4 2.8 10.5 4.4 5.5 7.6 7.3c3.2 1.8 6.9 2.6 10.9 2.6 2.9 0 5.7-.4 8.4-1.3s5.1-2.1 7.1-3.7V91.9h-7v12.4c-2.3 1.4-5.1 2-8.2 2-2.8 0-5.2-.6-7.4-1.8s-3.9-2.9-5.1-5c-.8-2.2-1.4-4.5-1.4-7.2zm68.3 4.7c0-3-.7-5.7-2.1-8s-3.3-4.2-5.8-5.5c-2.5-1.3-5.2-2-8.3-2s-5.8.7-8.3 2c-2.5 1.3-4.4 3.2-5.8 5.5-1.4 2.3-2.1 5-2.1 8s.7 5.7 2.1 8 3.3 4.2 5.8 5.5c2.5 1.3 5.2 2 8.3 2s5.9-.7 8.3-2c2.5-1.3 4.4-3.2 5.8-5.5s2.1-5 2.1-8zm1.4-72h-1.7v25.2h1.7V25zm35.2 72c0-3-.7-5.7-2.1-8s-3.3-4.2-5.8-5.5c-2.5-1.3-5.2-2-8.3-2s-5.8.7-8.3 2c-2.5 1.3-4.4 3.2-5.8 5.5s-2.1 5-2.1 8 .7 5.7 2.1 8 3.3 4.2 5.8 5.5c2.5 1.3 5.2 2 8.3 2s5.9-.7 8.3-2c2.5-1.3 4.4-3.2 5.8-5.5s2.1-5 2.1-8zm.7-46.6c1.6 0 3.1-.4 4.5-1.2s2.4-1.8 3.1-3.2c.8-1.4 1.1-2.9 1.1-4.7s-.4-3.3-1.1-4.7c-.8-1.4-1.8-2.4-3.1-3.2s-2.8-1.1-4.5-1.1c-1.6 0-3 .4-4.2 1.1-1.3.7-2.2 1.8-2.9 3.1V25H238v25.2h1.6V46c.7 1.4 1.7 2.4 3 3.2 1.2.8 2.7 1.2 4.3 1.2zM283 81.9h-6.8v4c-1.2-1.5-2.7-2.6-4.5-3.3-1.8-.7-3.8-1.1-6-1.1-2.9 0-5.5.6-7.8 1.8-2.3 1.2-4.2 2.9-5.5 5.1s-2 4.8-2 7.6.7 5.4 2 7.7 3.2 4 5.5 5.2c2.3 1.2 4.9 1.8 7.8 1.8 2.1 0 4-.3 5.7-1 1.7-.7 3.2-1.7 4.4-3v1.6c0 3.1-.8 5.4-2.3 6.9-1.5 1.5-4 2.3-7.3 2.3-2.1 0-4.1-.3-6.1-1s-3.7-1.5-5-2.6l-3.2 5.3c1.7 1.4 3.9 2.5 6.5 3.2 2.6.7 5.4 1.1 8.3 1.1 10.9 0 16.3-5.3 16.3-16V81.9zm1.7-40.6c0-1.7-.4-3.3-1.1-4.6-.7-1.4-1.7-2.4-3-3.2-1.3-.8-2.7-1.1-4.3-1.1s-3.1.4-4.3 1.2c-1.3.8-2.3 1.8-3 3.2-.7 1.4-1.1 2.9-1.1 4.6s.4 3.3 1.2 4.7 1.9 2.4 3.2 3.2c1.4.8 3 1.2 4.7 1.2 1.4 0 2.6-.2 3.8-.8 1.2-.5 2.1-1.2 2.9-2.1l-1-1.1c-.7.8-1.5 1.4-2.5 1.8-1 .4-2 .6-3.2.6-1.4 0-2.7-.3-3.8-.9s-2-1.4-2.7-2.5c-.7-1.1-1-2.3-1-3.7h15.2v-.5zm14.7 28.8h-7.1v42.1h7.1V70.1zm6.2-19.7c1.7 0 3.2-.4 4.5-1.2s2.4-1.8 3.2-3.2c.8-1.4 1.1-2.9 1.1-4.6s-.4-3.3-1.1-4.6c-.8-1.4-1.8-2.4-3.2-3.2-1.4-.8-2.9-1.2-4.5-1.2s-3.2.4-4.5 1.2c-1.4.8-2.4 1.8-3.2 3.2-.8 1.4-1.1 2.9-1.1 4.6s.4 3.3 1.1 4.6c.8 1.4 1.8 2.4 3.2 3.2 1.4.8 2.9 1.2 4.5 1.2zm31.5 46.8c0-3.1-.6-5.8-2-8.2-1.3-2.4-3.1-4.2-5.4-5.5s-5-2-7.9-2-5.7.7-8 2c-2.4 1.3-4.2 3.2-5.6 5.5s-2 5-2 8 .7 5.7 2.1 8 3.3 4.2 5.9 5.5c2.5 1.3 5.5 2 8.8 2 2.6 0 5-.4 7-1.2s3.8-2.1 5.2-3.7l-3.8-4.4c-2.1 2.2-4.9 3.3-8.2 3.3-2.6 0-4.8-.7-6.5-2-1.8-1.3-2.8-3.1-3.3-5.3H337c.1-.8.1-1.5.1-2zm23-48.1-.7-1.2c-.7.7-1.6 1-2.8 1s-1.9-.3-2.5-.9c-.5-.6-.8-1.5-.8-2.6V34h5.6v-1.5h-5.6v-3.9h-1.7v3.9h-3.3V34h3.3v11.6c0 1.5.4 2.7 1.3 3.5s2 1.3 3.6 1.3c.7 0 1.4-.1 2-.3s1.2-.6 1.6-1zm33.4 37.5c0-2.9-.7-5.4-2-7.5-1.4-2.1-3.3-3.7-5.9-4.9-2.5-1.1-5.5-1.7-9-1.7h-16.3v39.7h7.4v-11.4h9c3.4 0 6.4-.6 9-1.7 2.5-1.1 4.5-2.8 5.9-4.9 1.2-2.2 1.9-4.7 1.9-7.6zm5.2-37c1.2-.5 2.1-1.2 2.9-2.1l-1-1.1c-.7.8-1.5 1.4-2.5 1.8-1 .4-2 .6-3.2.6-1.4 0-2.7-.3-3.8-.9s-2-1.4-2.7-2.5c-.7-1.1-1-2.3-1-3.7h15.2v-.5c0-1.7-.4-3.3-1.1-4.6-.7-1.4-1.7-2.4-3-3.2-1.3-.8-2.7-1.1-4.3-1.1s-3.1.4-4.3 1.2c-1.3.8-2.3 1.8-3 3.2-.7 1.4-1.1 2.9-1.1 4.6s.4 3.3 1.2 4.7 1.9 2.4 3.2 3.2c1.4.8 3 1.2 4.7 1.2 1.4 0 2.7-.3 3.8-.8zm9.1 20.5h-7.1v42.1h7.1V70.1zm34.7 24.3c0-4.3-1.2-7.5-3.5-9.7-2.4-2.1-5.8-3.2-10.2-3.2-2.5 0-4.9.3-7.1 1s-4.1 1.6-5.7 2.8l2.8 5.2c1.1-.9 2.5-1.7 4.2-2.2 1.6-.5 3.3-.8 5-.8 2.5 0 4.4.6 5.6 1.7 1.3 1.1 1.9 2.8 1.9 4.9v.4h-7.8c-4.4 0-7.5.8-9.5 2.5-2 1.6-3 3.8-3 6.6 0 1.7.5 3.3 1.4 4.7.9 1.4 2.2 2.5 3.9 3.2 1.7.8 3.7 1.2 6 1.2s4.2-.3 5.8-1.1c1.6-.7 2.8-1.7 3.7-3v3.7h6.7l-.2-17.9zm36.8-12.5h-6.8l-9.6 22.4-9.5-22.4H446l13.2 30.4-.5 1.2c-.7 1.5-1.4 2.6-2.2 3.2-.8.6-1.8 1-3.1 1-1 0-1.9-.2-2.8-.6s-1.7-.9-2.4-1.5l-2.8 5.2c1 .9 2.1 1.6 3.6 2 1.5.5 3 .7 4.5.7 2.7 0 5-.7 6.9-2 1.9-1.3 3.5-3.7 4.8-6.9l14.1-32.7zM422 103.2c0 1.3.5 2.3 1.5 3.1 1 .8 2.4 1.1 4.2 1.1s3.4-.4 4.7-1.2 2.4-2 2.9-3.5v-3.5H428c-4 0-6 1.3-6 4zM120.3 74.1l-19.1-11-15.6 15.1L99.9 92l20.4-11.8c1.1-.7 1.8-1.8 1.8-3.1s-.7-2.4-1.8-3zM98 61.2 77 49.1 31.1 25.6 83 75.7l15-14.5zm-66.1 69 45.3-24.9L96.7 94 83 80.7l-51.1 49.5zM28 27.6v101.3l52.4-50.7L28 27.6z" style="fill:#fff"/></svg>