<svg xmlns="http://www.w3.org/2000/svg" viewBox="0 0 80 80"><path d="m22.3 73.1 2.4-3.4c.5-.5.8-1 1.1-1.7l-1.3.7-.1-.1 1.7-1.7c-2.2 1.1-3.3 3.3-5 4.9-1.1-1.1-1.2-1.2-.5-2.1l2.8-3.3c.5-.5 1-1.2 1.3-1.8l-5.1 5-.7-.9 3.8-4.2-.2-.2-4 3.5c-.8-.3-.6-.7-.1-1l3.5-2.5a53.7 53.7 0 0 0 11.3-9.6C28.3 59 23 62.8 17.4 66.1c.7-1.7 2.4-2.2 3.6-3.2 1.3-1 2.8-1.8 4.1-2.9l-1.7.7-6.2 3.8c-.4.3-.7.4-.9-.4l2.1-1.3c2.5-1.6 5.1-3.1 7.5-5 1.7-1.4 3.2-3 4.5-4.8 1.2-1.4 2.6-2.6 4.2-3.5.4-.2.7-.5.9-.9-.3 0-.6-.1-.8 0a9.8 9.8 0 0 0-3.9 2.7l-1.2 1.1-.3-.3 4-4.5-.3-.3-1.6 1.3-2.7 3.4c-.6.8-.8 2-1.8 2.6-2 1.3-3.9 2.8-5.9 4.2l-4.3 2.5a3 3 0 0 1-2.7.4l1.7-1.2 8.3-5.3.7-.7c.9-.8 1.2-2 2.4-2.7.9-.5 1.5-1.8 2.2-2.7l.3-.4c.7-1.5 2-2.7 3.5-3.4 1.5-.8 2-2.7 2.3-4.3.3-2.3 0-4.6-.9-6.7l2.8.7a13 13 0 0 1-1.5 8c-.6 1.2-1.4 2.3-1.9 3.5a3.5 3.5 0 0 0 2.5-2.2c.5-1.3 1-2.6 1.3-4l.3-2.4-.1-2.4 2.2.6c.5 1-.2 1.6-.7 2.5H41l-.8 2.3 2.9-.6c.2.7-.6 1.4.3 2l2.2-2.9c.1 1.2.1 1.1-.9 2.2-.6.6-1 1.3-1.8 2.3 1.9-.5 2.4-2 3.6-2.9l2 1c0 1.2 0 1.2 1.4 2.3-.8.7-.8.7-2.9-.7-.4.7-.4.7 1.2 2.3-1.1.4-1.6-.6-2.4-1-3 1.4-5.3 3.8-7.8 5.8l-.2.9 7.4-5.7c.9.6 2.1.6 2.1 1.9-1 1.1-2.6 1.5-3.1 3.1 3-1.6 5.6-3.8 8.8-4.8.6.9 1.1 1.7.7 2.7-.1.3.1.7.2 1.2-.6.1-.8-.4-1-.9-.2-.5-.4-1-1.3-.8l.6 2.1c-.9 0-.9 0-1.2-2-.9.2-.9.2-.9 1.7l-12.7 6.5c-2.6 1.3-5 3.1-6.9 5.3l3.1-2.1a60.2 60.2 0 0 1 7.1-3.9l3.6-1.7 3.6-1.9.9 1.1c2.1-1 4.3-1.7 6.7-1l.1 1.3-3.8-.2-.2.3.3.6-1.1.5 4 1.3-1.1 2c-.7.2-1.4-.1-1.6-.8l-.1-.3c-.1-.5 0-1.2-1.2-1.2l.4 2.2-1.2.2c-.8-2.7-.8-2.7-1.9-3.2l.7 3.5-1.9.3-.5-3.2c-.7 1.3-.7 1.3-.2 3.3l-2.3.8c-.3-.9-1.1-1.6-.3-2.8-2 .4-3.8 1.5-5.1 3.1l.6 2-1.6 1.3-.8-1.5 1.3-1.3c-2.4 0-10.6 7.1-15.3 13.2-.6 0-.7-.3-.4-.7zm3.9-9.8c2.4-2 4.6-3.9 6.9-5.5 2.2-1.6 4.7-3 7-4.5-2.8.3-12 7-13.9 10zm11.6-18.1c-.2.2-.1.7-.1 1.2 2-1.5 2.3-1.8 2.5-2.9-1.2 0-1.7 1-2.4 1.7zm-9.6 26.4 1.3-1.2-1 1.4-.3-.2zM27 70l.8-.9.3.4-.9.7-.2-.2zm2.5.4-.1.1.1-.1zm0 0c.1 0 .1 0 0 0 .1 0 .1 0 0 0zm.5-1.7c.3-.2.6-.2 1-.1-.4.7-.4 1.6-1.3 1.8-.4-.5-.3-1.2.2-1.6-.1-.1 0-.1.1-.1zm-1.2-.3 1.3-1.3.2.3-1.3 1.2-.2-.2zm5.9-3.7c-.2-.1-.6-.2-.7-.4-.2-.7 0-.9 1.5-1.7l1 1.4-4.7 4c.2-1.8 2.1-2.1 2.9-3.3zm-1.8.4.3.3-2.1 1.5c.2-1.5 1.1-1.5 1.8-1.8zm25.6 5.6c-2.8-.2-3.7-.7-3.8-2.6.5 0 1-.2 1.1.5.2.9.8 1 1.7 1.1 1 .1 2-.1 2.8.8.2.2.8.2 1.1.1l1.2-.5v.9l-2.3 1h-.7c-.6-.2-1-.7-1.1-1.3zm5.4-.6h-1.3c-.2-.6-.6-.5-1-.3l-.6.1.1-1.2-1.9.5c-.9.1-1.1-.1-1.1-1.4l1 .4c-.4-1.3-1.3-2.5-.3-3.9l.8.3c-.3 2.4.5 3.3 2.8 3.5l1 .1A2 2 0 0 0 66 67c.1-.3.2-.6.1-1-.2-.7.1-1.5.8-1.8.3-.3.4-.7.3-1.2-1.2.9-3 1.5-1.6 3.5-1.6.7-3.5 0-4.3-1.6l-1 .2c-.2-1.5-2.4-2-1.7-4l-.5.1-.7 1.6c-.4-.9-.3-1.9.4-2.6.3-.2.6-.3.9-.1 1.6.6 3.1 1.3 4.7 1.8.7.1 1.3-.1 1.9-.5.6-.3.9-1 .6-1.6l-.1-.1c-.5.9-1.1 1.6-2.2 1.5l.3-1.3c-1.4.2-2.8 1.6-4-.1l.4-.7-.2-.2c-1.2-.3-2.3-.6-2.6-2.2h1.4c.7 1.8 1.3 1.9 3 .5h-1.6l-.1-.2 1.5-1.1-2.1-.5.5-1.3c-.7-.3-1.4.5-1.5 2l-2.3-.8 1-1.6-.7-.7.7-.4 1.8.8.2-.3-.9-.9 1.5-1.5c-.1 1.4 1.2 1.9 1.9 2.6.4.4 1.1.6 1.2 1.3l.5.5c1 .5 2 .8 3 1.1l2.7-.3c-.3-.5-.9-.7-1.4-.5-.3.1-.5 0-.8-.1v-.7c-.4-.4-.9-.3-1.5-.2-.6.2-1.2.3-1.7-.4l1-1.4h-1.9c-.8-.8.3-1.7-.4-2.4.6-.3 1.4-.1 1.8.4.3.4 1 .5 1.4.2.3.2.3.2.4.1.5-.6 1-1.2.6-2l-1-1.4-2 2.1c-1-.8-1.2-1.5-.3-2.3.6-.5.6-1 .4-1.9L62 46.5l-.3-.6a4 4 0 0 1 3.1-3.4l1.4-.1c.5 0 .9-.2 1.2-.6.8-1 1.4-2 1.9-3.2.4-1.2 1.4-2 2.6-2.2 2.1-.6 3.9.9 4.1 3.3 2.3.6 2.2 2.5 1.7 4.8l1.4-1.3c.8 1.2 1.4 2.4.5 3.8L78 50.2l1.7-1.7c.5.8.2 1.9-.6 2.3l-.4.2c.9 1.4.1 2.4-.9 3.3l-2.6 1.9h1.3l2.7-2.3c-.4 1.6-1.9 1.6-2.7 2.3l1 .7c-.5.9-1.3 1.6-2.3 2l-.4-1.2a7.4 7.4 0 0 1-4.4 2.4c.3.5.7.5 1.1.4h.6c1 1.8.8 2.3-.8 2.7v1.4l-.5-.2-.2-1.3-.5-1.2c-.5.8-.3 1.9-1.2 2.5l.4.8c.2.2.7.2.9.5.2.3.5 1 .4 1.2-.7.6-.9 1.8-1.9 2.1l-.7.4c0 1.6-1.3 1.6-2.3 1.9l-2.3.5.5-1.7zm2.4-1.7c1.9-.2 2.6-1.1 2.1-2.7l-2.1 2.7zm.5-8.1c1.4.5 1.2 1.9 1.6 3.1.8-.9.2-1.7.4-2.4l1.5-.9-3.5.2zm-.3-1.7c.5.6 1.3.6 2.2 0l-.7-.2c-.6-.1-1.2-.2-.9-1.4-.7.6-1.1 1-.6 1.6zM72.8 44l-1 1.4c1 .7 2.2 1.2 1.2 2.7 1.8-.6 1.8-1.4 0-3.2.5-.8.8-1.7-.2-2.1a14 14 0 0 0-3.4-.8c-.4 0-.8.4-.8 1h2.6c.6.1 1.2.5 1.6 1zM62.6 70.1c.1 0 0 0 0 0zm.1 0c-.1 0 0 0 0 0zM52.3 66l1.7.5c-.3.2-.6.2-.9.2-.3-.1-.6-.3-.8-.7zm4.9-1c.5-.4.7-.9 0-1.6l1 .4-.5 3.2-1.7-.3c0-.8.5-1.4 1.2-1.7zm-3.9-1c.5-1.3-.7-2.4-.3-3.7.3.1.6-.1.8-.3.4-.3.8-.6 1.4 0l-.9.6c-.7.4-.9 1.3-.4 2l.2.3c.4.4.7.8.4 1.3-.2.3-.5.5-.9.6 0-.1-.4-.6-.3-.8zm-13.9-4.2 2.6-1.3 1 1.7-2.9 1.4-.7-1.8zm15.8-2.4 1.3 1.7c-.6-.3-1.7-.2-1.3-1.7zM3.3 46.7c-.2-.2-.1-.7-.1-1.3l2.6 1.3c-.5.3-1.2.5-1.8.4-.3 0-.5-.2-.7-.4zm4.5.4L9.5 46l.2.3L8 47.4l-.2-.3zm5-.9a93 93 0 0 1-2.8 1.6c.7-1.7 1.2-2 2.8-1.6zm-12-1.6c-.4-.7-.1-1.4.7-2.2l1.4 2.5c-.4.2-.9.3-1.4.2a.8.8 0 0 1-.7-.5zm26.8 2.5 1 1-1.7 1.7c-.8-1.3.2-1.8.7-2.7zM7.8 43.7 6.5 45c-.2-1.1.1-1.4 1.3-1.3zm-2-1-1.6-.6.1-.3c1 .1 2.1-.1 2.8 1.1l-2 1 .7-1.2zm-2.7-.6.8 1.4c-.9-.2-1-.7-.8-1.4zm22.3 5.3 1-1.9-1.5.5c-.6.3-.9 0-.9-.7l.1-1.7-5.4-4.5.5-.8c-.2-.4-1.3-.6-.6-1.5 1.6.5 2.6 1.9 3.5 3.2a8 8 0 0 0 3.3 3c-.1-.3 0-.7-.2-1l-5-6.1 1.6-2.1 2.7-.6c.4 2.4.2 5.2 2.7 6.8l-.3 1.5 1.3-.8-.7 2.2c.9.1 1-.9 1.7-1.1.3 1-.7 1.6-.8 2.5 1 .3 1.2-.8 2-1.3l-.6 1.5.2.2 1.2-.8.2.2-2.1 2.5c-1.4-.7-2.4.4-3.6 1l-.3-.2zm.5-3.1c.7 1.2.7 1.2 1.5 1-.5-.8-.5-.8-1.3-1h-.2zm.4-2.6L25 39.3c-.4-.9-.6-1.9-.9-2.8-.3-.8.3-1.9-.8-2.4-.8 2.6.7 6.4 3 7.6zm-14.2 3.1.3-1.8.4-.1c.2.4.6.8.6 1.2-.1.3-.6.6-.9.9l-.4-.2zm-12-3.5c-.4-1.1.3-1.7 1.1-2.4l.7 2.3-1.4.2H.4l-.3-.1zm14.3-1c-1.1 1.4-2.8 2.5-3.9 2.4l3.9-2.4zm-10-.2c-.1-.5-.2-.9-.7-1l-.5 1.4c-1.2-.8-1.2-1.1 0-2.3l2.6 1.6-.1 1.1-.7.1c-.4 0-.5-.4-.6-.9zm4 .7c0-1.1 1-.9 1.7-1.3l.6 1.6-.2.2-1.4-.9.1 1.2h-.4c-.3-.1-.5-.4-.4-.8zm13 3-.6-.3c.6-.7.6-.7 1.3.2l-.7.1zm40 5.1-1.3-.1-.3-2 1.8.6.9 2.9-.9 1c-1-.4-1-.4-.2-2.4zM6.3 39.8l1.7-.7-.6 1.7a10 10 0 0 0-1.1-1zm10.7.7-1.9 1-.2-.3 1.1-1.5c2-.2 3.3.9 4.4 2.3-.6 1-.6 1-2 .4l.1-1.2-.5.2c-.3.7-1.1 1.1-1.9 1l.9-1.9zm42.9 10.2c0 .1 0 .1 0 0 0 .1 0 .1 0 0zm-2.2-1.3 1.2-1.1c.8.5 1.2 1.5 1 2.5l-.5-.1-.3-.1c-.7-.1-1.2-.5-1.4-1.2zm4.9 1c0 .1 0 0 0 0zm0 0c0 .1 0 .1 0 0zm-5.8-3c.4-.3.6-.9.3-1.4l1.9.2v1.1L56.4 49c-.3-.5-.1-1.2.4-1.6zm-46.3-9.1c.4-.5 1-.6 1.6-.3l.5.1c-.1 1.7-.1 1.7-1.5 2.1-.3-.6-.4-1.2-.6-1.9zm54.8 11.4.9-.6c0 .9-.3 1.1-1.1 1.2l.2-.6zm-61-12.2c1.8-.3 1.8-.3 2.5.9-.3.2-.7.3-1 .2-.6-.2-1.1-.6-1.5-1.1zm-3.3-2c0-.8 1.5-.7.9-1.8l1.3.1.1-.2-1.7-1.3 1.2-1.7H1.4l1.1-2.2 2.3.7C3.7 30.3 3 31.5 3.9 33c.1.4.1.8-.2 1.1-1 .7-1.3 2-.9 3.1l-1.8.5c-.6-.8 0-1.5 0-2.2zm53 11.1c1 .1 1.5.2 1.4 1.5L54 46.6zm-40.4-9c1.1-.1 1.1.5 1.1 1.2l-1.2.6.1-1.8zm-4.1-2.4.1 1.7c.3 1.1-.4.9-1 1.1-.3-1.1.1-2.1.9-2.8zm45.8 10.7c-.2-.6.2-1 .7-1.2l.6-.1.5 1.4-.4.3c-.2.2-.5.2-.8.2a.9.9 0 0 1-.6-.6zM4.6 35.2C4.4 33.6 6 33.4 7 32.5c-.7-1.1-1.5-.4-2.4-.2-.6-1.5.5-2.3 1.5-3.2-1.9-.7-2.2-1.4-1.5-3.1l.9-1.9c-2.1-.4-3.3 1-3.6 3.8-1.2-.5-1.4-1.2-.7-2.3l1.4-2c-.8-.2-1.4-.6-1.4-1.6.1-1.3.8-2.5 1.8-3.2-.4-.5-.2-1.2.3-1.6l.3-.1c.9-.5 1.3-1.4 2-2.1l.1-.7 2-.3.3-.1c1.6-.2 1.6-.2 1.6-1.8 2.1-.4 3 .2 4 2.8 1.3-.2 1.5-2.6 3.1-2 1.1.4 2.6.2 2.9 2l1.6-.2c.7 1.4.7 3 .1 4.5l-.7 2.3 1.1.2.2 1.6c-1.1.5-2.3.1-3.1 1.4l1.1.3-.4 2c-.1.5-1.5 0-.9 1.4l-1.7.3.5-1.4c.2-.7-.2-1.4-.9-1.7l-.4-.1-.3-.1c-.4-.2-.9-.4-1.4-.4-.3 0-.6.5-.8.8a2 2 0 0 0 .2 2.7l.2.2-.8.8-.7-1.4-2.3-.1.2-1-1.4-.3 1.3-2c-1.2.1-2.3 1-2.5 2.2-.4 1.5.4 3 1.9 3.5l-.4-1.7 3 .4c.3.6-.1 1.2-.9 1.9l-.8-.6-.7 1.5-1.3-1c-.3 1.2 1 1.3 1.3 2.3l-.4 1.3c-.2.4-.7.9-.9.9-1.3-.2-1.7.7-2.2 1.5l-1.8-1.7zM6 17.5c-1.9 1-.7 2.9-1.3 4.3-.1.3.4.9 1 .8-.3-1.6-.3-1.6 1.7-2.7l-1.7-1 1.7-1.5c-1.4-1.4 0-2.2 1.1-3.2l-.8-.2c-1.1.9-2.3 1.7-1.7 3.5zm11.8-.9-1.7.2c-.6.2-1.1.2-1.7.2-.9-.2-1.7.1-2.3.8-.8.8-1.8 1.4-2.5 2.3-.8.6-1.3 1.5-1.2 2.5l1.7-1.9.8.4c.4-1.1 1.5-1.6 1.9-2.7.1-.3.7-.4 1.2-.7-.7 1.9-.7 1.9.3 3a3 3 0 0 0-.2 1c-.1.7.4 1.3 1.1 1.4 1.1-.1 2.1-.8 2.6-1.7a2 2 0 0 0-.1-2.4l-.7-1.2.3-.2 1 .9c.5-.9.4-1.5-.3-1.7l-.2-.2zM12.4 36l-2 1c.4-1.5.4-1.5 2-1zm44.7 10zM15.7 35.7l-2.3 1c.3-1.2.5-1.3 2.3-1zm41.9 8.7H60c-.7.6-1.1.9-1.4.8-.3 0-.5-.3-1-.8zM50 42.8l1.7.1c-.4.5-.7.7-.9.7s-.6-.4-.8-.8zm-32.4-7.9c.6-.3 1.3-1.3 2.2-.1l-2.4 2.1.2-2zM56 43l-1-.6c.2-.4.7-.6 1.1-.4l.3.2c.6.4 1.3.5 1.9.1.3-.2.8 0 1.2.1l1.7.6c-.8.4-1.8.5-2.7.3-.7-.3-1.2 0-1.7.8-.2-.4-1.1-.2-.8-1.1zm-43.2-9 .3-.2.5.8-.3.2-.5-.8zm37.1 7.3 2.3.2c-.3.3-.8.5-1.2.4-.5-.1-.9-.3-1.1-.6zm-35.8-8.2 1.3-.2.1.4-1.3 1.3-.1-1.5zm34 7.8c-1-.4-1.2-1.4-1.6-2.5l1.7-.6 1.1 1.9c.1.4 0 .7-.2 1-.3.2-.6.2-.9.2h-.1zm10-.2 1.3-.8-.2-.3-1.7.1.3-1.4 1.8-.4c-.4-.9-1.3-.7-1.9-1.3l.2-1.9c-.8.5-1.1 1.5-.9 2.4.1.9-.6 1.8-1.5 2-1 .1-1.5-.4-1.7-1.9.8-.5 1.9-.9 2.1-2.2h-1.4l1.1-.8c-.5-1.7 0-3.6 1.4-4.7l-.3-.2-1.3.8-.1-.2 1-1.3c-1.2-.7-2.4.2-3.1 2.3-.5.1-1.1.2-1.2-.5-.3-1.1.5-1.8 1.4-2.3-1.3-.6-1.3-.5-2.6 1.6-.2-1.2-.5-2.1-1.7-2.1-.3-1.4-.2-2.4 1.4-3-.6-.2-.9-.4-1.1-.3-.7.2-1.2.8-1.2 1.5-.1 1.7-.2 3.3.7 4.9-1 .8-1.5 2.1-1.2 3.4.1.6-.1 1-.9.9l.2-3.1a2 2 0 0 0-1.1 0c-.8.2-1.5.3-1.8-1 .7-.6 1.3-.3 2 0 .5.3 1.1.4 1.6.3-.6-.6-1.6-.7-1.5-1.7l-.5-.1-.4-.1v-1.4l1.7.4-.9-1 .7-.7-1.1-.3.7-3.2c-1.5.8-1.1 2.2-1.6 3.2-.8-.9-.7-1.4.3-4.2l-.9.8c-.3.6-.4 1.3-.5 2-.2 1.6-.6 2.2-2.2 2.4h-.2c-.8-.3.6-1.5-.6-1.7l.4-2.2 1.6 1.1c-.3-1.6-1.5-3.1.1-4.6-1-.3-1.6.2-1.5.9.2 1.7-1 2.9-1.5 4.3-.5 1-1.3 1.9-2.1 2.6L37 26l2-.2-1.4-.8c0-1 1.1-1.2 1.8-1.9-1.2-.2-2.5.1-2.8-1.7.1-.7 1.1-.5 1.6-1l.9-1.8-2-.3 2.7-1.1-1.6-.5c.5-.9.8-1.8 1.9-1.9l.6-.3c.5-1.4 1.7-1.3 2.8-1.5-.8-.3-1.5-.8-1.9-1.6-.2-.8-1-1.2-1.8-1a15.5 15.5 0 0 0-3.1 3.2c-.2.3-.3.8-.6.9-1.4.5-2.2 2-1.8 3.5-2.6 1.2-3.1 2.7-1.6 4.1l-.4 4 .7.1c.5.1.8.1 1 .3.2.5.2 1.1-.1 1.6-1 .9-.7 1.9-.6 2.9l-.2-.1h-.7c-2.7-.2-3.6-1.5-2.8-4.2-.6-.2-1 0-1.1.6a4 4 0 0 0 1.4 3.9c-.7.3-.9-.1-1-.4-.1-.3-.2-.5-.5-.6l-1.8.5.1-2-1.5-.7c-.6-.5 0-1 .2-1.5-.4-.4-1.4-.6-.9-1.4.2-.4.9-.4 1.4-.7-.2 2.9.1 3.5 2.3 4.4a3.9 3.9 0 0 1-1.1-4.9c-.6 0-1.2.2-1.5 0-.7-.4-.7-1.2-.5-1.9l.5-1.8c-.7-.8-1.3.2-2 .1.2-1.2.2-1.2 1.7-2.9-1.1-.4-1.4 1.1-2.4 1.1.1-1.3 1.1-1.9 1.8-2.7l-1.7.3c0-1 .4-2.1 1.1-2.8l1 .6.4-1.5c-.1-1.2.8-2.4 2-2.5h.6l1-1.8c.5-.8 1.1-1.3 2.2-.8.1.1.4-.2.7-.3l1.1-.7.9 1.9c-1 1.1-2.6 1.8-2.7 3.6 0 .5.1 1 .3 1.4.7-1 .3-2.5 1.6-3l.4 1.7h.3c0-1.1.7-2.1 1.7-2.5l-.3-.9c1.5-.4 3.1-.1 4.2.9l2.1-.6.2 1.6c.7-.2 1.3-.6 2 0 .5.4 1.5.1 2-.6a4 4 0 0 1 2.8-1.5c.6 0 1.1-.3 1.4-.8.4-.7 2.3-.6 3.2 0l2.4 1.9c.4.3.7.8 1.4.1l-4.2-3.2c.2-.6.6-.7 1.2-.6a11 11 0 0 1 4.5 2.1c.2.1.3.3.4.6.4 2.1.3 2.1 1.7 3.1.1-.7.1-.7-.8-2.2 1.3-.7 2.6.2 3.6 2.5l-1.3.3c1.2 1.3 1.2 1.3 1.4 2.2 1-.5 1.5.3 2 1l3.2 4.9 1 1.8-1.8 1 1.9.6-.6 1.1 1.3.1c.1.6.1 1.2-.1 1.8-.4.5-.8 1-1.3 1.3.6.3 1.2.5 1.5.9.2.3 0 1-.1 1.7.3-.2.5-.2.6-.4l1-1.8 1-1.7.7-.9c.3.3.7.7.7 1 0 .8-.2 1.6-.3 2.3h.6c.3-.1.6-.2.8.2.1.7.1 1.3-.1 2-.1.4-.6.7-1.1 1.3h1.5A2.8 2.8 0 0 1 73 35c-.4 0-.8-.2-1.2-.4l-2.5 2.2c-.2 2-.4 2.2-1.9 2.2l-.2.9-.6.8c-.9-.5-1.5.3-2.3.4-.9.2-1.8.2-2.6 0-1.8.3-2.7 0-3.6-.4zm2.5-2.4 1.1.8c1 1.1 1.4 1.2 2.7.8l2.1-.3c-.8-1.4-2.4-1.1-3.4-1.9-1.1.6-1.9-.2-2.8-.6 0 .9 0 .9.3 1.2zm5-3c.2-.2.6-.2.7-.5.5-1 .6-2.2.1-3.2-1 1.2-.1 2.6-.8 3.7zm6.6-3.9a8 8 0 0 1-1.3 1.9c2.2-.6 2.6-1.8 1.1-4l.2 2.1zM62 30.7c1.3-.4 1.3-.4 1.1-2.2L62 30.7zm-33.8-8.2-1.6-1.2c.1 1.7.4 1.9 1.6 1.2zm.8-1c.3.7.4.8 1.8.8-1.3-.9-1.2-1.9-.9-3.1-.9.4-1.3 1.4-.9 2.3zm32.9 5.9c1.5-2.6 1.4-3.6-.6-4 1.3 1.3.4 2.7.6 4zm-11.3-3 .4.1.3-1.5c-.8.6-1.1.9-.7 1.4zm-20.3-9c-.5.8-1.4 1.5-1 2.6l2.7-3.1c-1.1-.1-1.3-.1-1.7.5zm16.1 1c-1 .3-2.5 2.8-2.3 4l.4.2.5-.8 1-.6c-.1-1.5-.1-1.5 1.5-2.2l-.7-.6h-.4zm12.2 4.7 2.3 1.8c-.2-1.2-.6-2-1.2-2.1a2 2 0 0 0-1.1.3zm-.2-2.5c1-1.5.8-2.2-1-3.2l1 3.2zm1.6-1.2.2.9.9.1-.5-1H60zm-9.9-2.8 3.3-1-.1-.4c-1 .4-2.2-.2-3.2 1.4zm5.2-2.4 2 .7c.7.2.4 1.4 1.4 1.2-.1-1-.7-1.8-1.5-2.2l-3.5-1.7-.4-.4-1.4-.8c-.8-.3-1.6 0-2 .7h1.2a2 2 0 0 1 1.8.3c-1.6.9-1.6.9-1.6 1.7.8-.6 1.8-.9 2.8-.9.5.2.9.6 1.2 1.4zM41.6 37.1c-.1.1-.3.2-.4.1l.4-.1zm-25.9-6.2-1.3-.2v-.3l1.7-.3.2 2.2-1.3-.1.7-1.3zm26.2 5.8c.3-.4.7-.9 1.5-.2l-1.8.6.3-.4zm8 .2c.9-.4 1.7-.7 2.4.2-.4 1.3-1.5.8-2.4 1.3v-1.5zm-20.6-3.1c.9-.3 1.8-.5 2.4.7l-2.4-.7zm3.8-1.3-1.4.1c-.3-.9.3-1.2.9-1.5l.2.1 1.9 2.2-2.3.4.7-1.3zm-11.5-.9-.2-3 1.2 1.2c.5.3.8.7.6 1.2-.1.5-.8.7-1.6.6zM35.2 33l.2-.2.6.6-.4.3-.4-.7zm7 1.9c.1-.8 1.3-1.5.1-2.2l.5-1.3c1.1 1.3 2.3 2.4 2.1 4.2l-2.7-.7zm6.5-2a7 7 0 0 1 1-1.9l4.3 1.7v.4c-1.7-.5-2 1-2.9 1.7l-1.3-1-.8 1.1c-.2-.6-.3-1.3-.3-2zm-15-3.5 1.5 2.5-.4-.1c-1.1-.2-1.4-.9-1.1-2.4zm-19.3-3.7v1.8c-1-.8-.6-1.3 0-1.8zm26.2 3.4 1.7 1.6c-.9.6-1.4 1.3-2.6 1.3.3-1-.8-2.1.9-2.9zm-25.1-3.2c.5-.1.9 0 .8.6l-.3.3h-.2c-.3 0-.4-.4-.3-.9zm20 4.1 1-1.1.2.3c-.1.4-.2 1-1 .8-.1.1-.1 0-.2 0zm7.2-1.4c.2-.6.5-1.2.9-1.7l.3.1-.2 2.2-.7.1c-.3 0-.4-.2-.3-.7zm-3.7-.7c-.1-.3 0-.5.2-.7.2-.1.7-.2.9-.1.3.3.5.6.9.4l-1.1.8h-.2c-.3 0-.5-.2-.7-.4zm2.2-.5-.2.1.2-.1zm0 0zM33.5 25l2.2-1.3-1.4-1.1.6-.8 1.8 2.2-2.8 1.8-.4-.8zM1.9 17l1.2-2 .4.2-1.3 2c0-.1-.1-.2-.3-.2zm13.8 2.1 1.3.2c-.3.4-.5.5-.6.5l-.7-.7zm18.9.1a3 3 0 0 1-2 2.2c-.4-1.6.1-2.2 2-2.2zm36.2 5.6c1.2 1.6 1.1 2.5-.3 3.7.2-1.3.3-2.4.3-3.7zm-36.1-8.5.5.9.5.8h-.5c-.7-.2-.6-.9-.5-1.7zm36.8 7.4c.8.3 1.4.4 1.5 1.2h-.4c-.5-.1-.7-.6-1.1-1.2zM12.7 12l2.7-.2-1.4 1.6-1.3-1.4zm23.7 3.6c.1-.2.6 0 1.2 0l-.8 1.6c-1-.4-.9-1-.4-1.6zM69.1 19c1.2.5 1.5 1.4 1.8 2.4-2-.5-2.1-.6-1.8-2.4zm-29.9-6.2c-.1-.3-.1-.6 0-.8l1.7-.4c-.1.5 0 .9-.2 1-.3.3-.7.4-1.1.4l-.4-.2zm-4.3-5.3c.1-.8.7-1.4 1.5-1.4l-.2.9c2.4-.8 3.3-.5 4.4 1.1l-1.5.6-4.2-1.2zm9.9.1 3.2-.7c-.1 1.3-1 1-1.5 1.1l-2 .6c-.4-.5-.2-.8.3-1z"></path></svg>