<svg xmlns="http://www.w3.org/2000/svg" viewBox="0 0 80 80"><path d="M39.4 80.1c-.7-.6-1.5-1.2-2.1-1.9a150.3 150.3 0 0 1-18.9-24.6c-3.2-5-5.6-10.5-7.3-16.2A29.7 29.7 0 0 1 29 2.2a30.1 30.1 0 0 1 39 16.9l.8 2.2c2 6.5 1.6 13.5-.9 19.9a85.4 85.4 0 0 1-10.7 19.4c-4.6 6.5-9.6 12.7-15.1 18.4l-1.4 1.1h-1.3zM21.6 12.8A24 24 0 0 0 15.2 34c1 4.7 2.7 9.2 5.1 13.3C24.7 55.2 30 62.7 36 69.5l4.1 4.7.5-.5c3.4-4.2 7-8.3 10.4-12.7 4.7-6 8.6-12.5 11.7-19.5A28.5 28.5 0 0 0 65 25.4 25.5 25.5 0 0 0 41 4.8h-.7c-7.1-.2-14 2.7-18.7 8zm1.7 23.9c-.7-.6-.9-1.6-.5-2.5.3-.9 1.1-1.5 2-1.5h2.8v-2.2c-.2-6 3.8-11.2 9.7-12.6l.3-.1c.4-1.9 1.2-2.8 2.6-2.7 1.3.1 2.1 1 2.2 2.7 3.2.7 6.1 2.6 7.9 5.3a14 14 0 0 1 2 9.6h2.8c1.2 0 2.2.9 2.3 2.1.2 1.2-.6 2.3-1.8 2.5l-1 .1H25.2c-.7 0-1.4-.2-1.9-.7zm9.3-8.4a31 31 0 0 0-.3 4.3h15.5v-3a7.7 7.7 0 0 0-6.8-7.3h-.8a7.5 7.5 0 0 0-7.6 6z"></path></svg>