<svg xmlns="http://www.w3.org/2000/svg" viewBox="0 0 80 80"><path d="M19.3 66.7c3.5-.7 6.9.9 10.2 2.8 2 1.1 3.7 2.6 5.1 4.3l-3.3-1.7c.3.7.9 1.2 1.5 1.6l.8.6c.3.3.6.4 1 .6.6.1 1 .5 1.3 1-2.6-.4-4.5-2.3-6.8-3.3 1.1 1.9 3.2 2.3 4.9 3.6-1.1 0-2.2-.3-3-1l-3.1-2.1-.3-.2c-.3-.3-.7-.5-1.2-.2-.2.1-1-.5-1.6-.8.1-.5 1.1-.5.2-1.3l-.9.6-2.8-2a6 6 0 0 1-2-2.5zm8.7 5.1c.1-.2 0-.4 0-.8l-.6.1.6-.1c0 .4.1.7 0 .8zm-5.1-7.4c2.4-2.3 4.9-4.4 6.5-7.3a62 62 0 0 0 3.2-6.3c.8-1.8 1.4-3.7 2-5.6l.4-2.4c0-.8.4-1.6 1-2.1l.2 1.7c1.2-.2.2-1.6 1.2-1.9l.1 1.8 1.1-.2.1 1.2.3.1c.7-1.5.2-3.5.6-5.1.5 1.9.7 3.9.6 5.8.9-.5.9-.5.7-4.6.6.8.6.8.6 4.6h.9c.3.4-.5 1.2.8 1.5l.5-4.2c.8 1.7.1 3.1.3 4.8l.9-.3.3.8c.5-.3 1.4-.4 1.5-.9.5-1.5.4-3.2-.3-4.6l1.2.5.1.3a36.5 36.5 0 0 1-4.2 21.5 59.7 59.7 0 0 1-6.6 10.4c-.1.2-.4.3-.7.4l-.8-1.4a7.2 7.2 0 0 0 2.9-3.3c1.7-3.1 3.4-6.2 4.9-9.4.5-1.2.9-2.5 1.2-3.9l1.5-6 .1-.8-.9.3-.1.4-1.5 6.6c-.6 2-1.4 3.9-2.3 5.7-1.3 2.6-2.9 5.1-4.3 7.7l-1.8 2.3-1.3-1a10 10 0 0 1 2-2.9 25 25 0 0 0 4.8-9.1c.2-.5 0-1-.4-1.2l-.4.4a21 21 0 0 1-4.6 9.2l-1.3 1.7c-.9 1.2-1.4 1.1-2.9-.5l.7-1c2.2-2.4 3.9-5.1 5.2-8.1l2.4-5.4c.3-.7.4-1.3.5-2 0-.2-.3-.4-.5-.7l-.5.3c-.8 4.8-3.3 8.6-5.5 12.5-.9 1.4-2 2.6-3.1 3.8l-2.3-1 2-2.9 1.9-3c-.7-.6-1-.5-1.2 0l-1.9 3.2-1.8 2.3-1.9-.9c1-1 1.8-2.3 2.3-3.7l-.6.3-2.8 2.6c-.4.4-.9.4-1.6 0 .1-.4.3-.7.6-1zm4.3-2.7c.5.1.8.3 1 .2.7-.5 1.5-1 1.5-2l-.3-.3-2.2 2.1zm4.9-1.6c1.4-1.1 1.7-1.7 1.1-2.6-.5.7-1.4 1.1-1.1 2.6zm10.1-8.8-1.4 3.8.4.7c.6-1.2 1.1-2.4 1.5-3.7.1-.2-.1-.5-.2-.7l-.3-.1zm-1.5-4.6-.4 2.3.4.2c.7-.5.6-1.3.8-2.1a3 3 0 0 1-.8-.4zM37 75.3a48.6 48.6 0 0 0 11.9-29.2l.3.1.1 1 .1.7c1.1.7.7 1.5.6 2.1a26 26 0 0 1-1.5 6.7c-1.3 3-2.3 6.2-3.4 9.3-.3.8-.7 1.5-1.2 2.1l-5.5 6.5-1.1.9-.3-.2zM11.9 45.9c1.7 0 3.3-1 3.9-2.6-.6-.4-.7.1-.9.3-1 1-2.4 1.5-3.8 1.2l1-1.1c-.7-.3-1.1.1-1.6.2-.7.2-1.3-.1-1.9-.9 1.7.2 3.4-.5 4.6-1.7l-2.2.5c-2.7.6-5.2-.8-6.8-3.8 3 1 5.9 2.3 8.6 1.2l3.1 2.4c2.5 1.8 4.9 3.7 7.4 5.3 2.2 1.2 4.5 2.2 6.8 3.1l1.3.6a5 5 0 0 1-2.3 3.3c-.1.1-.5-.1-.9-.1l1.1-2.5-.2-.2-.6.3c-.3.3-.5.8-.9 1.1-.7.7-.9.7-2.2-.1.3-.9 1.7-.9 1.6-2.2-1.6.5-2.6 2-4.9 1 .8-.9 1.8-1.4 2.2-2.7a6 6 0 0 0-2.1 1.4c-.8.7-1.7.8-3 .2l1.8-1.7-.2-.3-1.7.7c-1 .8-2.2.5-3.5-.4.9-.9 2.2-1.4 2.7-2.9-1.7.6-2.4 2-4.5 2.1.5-1.2 1.9-1.5 2.1-3l-1.6 1.1-1.2.7c-.3.2-.6.1-.8-.1-.2 0-.3-.2-.4-.4zM2.3 35.1C1.4 33.6.9 32 .7 30.3l1.3 2c1.2 1.8 2.7 3.2 4.6 4.3 1.3.8 2.8 1.2 4.3 1 .6-.1 1.1.2 1.2.8v.1c-1.5.3-3 .2-4.4-.3l-3.1-1.1-1.2-.6-1.1-1.4zm1-2.7C2.4 31 1.2 29.7 1.1 28l-1-.2a16.3 16.3 0 0 1 5.1-14.3l5.9-4.6a15 15 0 0 1 4.8-2.6C20 4.8 24.4 4 28.8 4l4.8-.1c.6-.1 1.3.1 1.7.6 1.1-.8 2.7-.4 4.2-.3 3.9.3 7.6 1.5 11 3.5l1.7 1.2a54 54 0 0 0 5 3.3c1.4.8 2.7 1.9 3.8 3.1 2.7 2.8 5.4 5.6 8.3 8.3 1.1 1.1 2.1 2.4 3 3.8l3.2 5.1-.6 1c1 1.2 1.5 2.7 1.5 4.3v2.1c1-.7.5-1.9 1-2.5a8.2 8.2 0 0 1 1.3 4c.1.5-.3 1.1.6 1.5l.3.7c.6 2.3.7 4.6.4 6.9 0 .4-.3.8-.7 1-.3.2-.6.5-.6.9a8.8 8.8 0 0 1-2.9 4.4 17.3 17.3 0 0 1-5.4 3.5c-.3.1-.5.1-.3.6l-.5.4-3.3.3-.6.1c1.1.6 2.3.8 3.5.5a21 21 0 0 1 3.5-.5l-1.1.6-1.3.6c-.5.4-1 .1-1.4-.3-2.6 1.2-4 1.3-6.9-.1.3.9 1.1 1.5 2 1.6-1.1.3-2.2 0-3-.7a20 20 0 0 1-1.6-1.4c-.1 1 .1 1.2 2.2 2.8-.6.4-1.3.3-1.7-.3l-3-2.8c-.2.4-.2.4 1.7 3-1.8.1-2.9-.8-4.5-3.6-.4 1.1.1 1.6 1.2 3.1-1.4.4-2.1-.3-2.9-3l-.7.9-.2-1.6c-.6.2-.6.2-.9 2.7l-1.1-.3c-.4-1 1.2-1.8-.5-2.9l.5-1.3 1.1.1c3.3 1.1 6.7 1.8 10.1 2a35 35 0 0 0 6.5-.6c.7-.1 1.3-.5 1.7-1.1 1.1-1.7 2.8-2.8 4-4.3.9-1.3 1.6-2.7 2.3-4.1 1.1-1.8 1-3.9.9-6l-.1-.3-.5-.3-.3 1.4a11 11 0 0 1-1.7 6.4c-.9 1.8-2.2 3.3-3.7 4.5l-.4-.6a6.5 6.5 0 0 0-2.9-3.6l-1.4-1.1-1-.8-2.3-1.6.6-1.7c-1.2-.3-1 .8-1.9.9l-1.3-.8c1.1-1.9 3.2-3.3 2.6-6-.8-.2-.6.3-.7.7a7.2 7.2 0 0 1-2.8 4.6l-.4.1-1.6-1-1.9-1.1c.1-1.1.5-2.1 1.1-2.9.7-1.5 1.1-3.1 1.3-4.7l-.8.3-.4 1.7a15 15 0 0 1-2.4 4.9l-2.3-1.1.5-1.2 1.6-4.8.1-1.4c-.7-.2-.9.1-.9.6-.1 1.8-.6 3.5-1.5 5.1l-.6 1.1-2-.9c0-.5.1-1.1.3-1.6 1.2-3.6 1.6-7.3 1.3-11-.1-.7-.2-1.4-.5-2.1 0-.4-.4-.7-.8-.7h-.2c1.6 5.5.5 10.2-1.1 14.9-2.4-.4-4.4-2-6.7-2.8l-.4-2.4c-.8.1-.8.1-.7 2l-4.7-1.5c-.8-.4-1.4-1.2-1.3-2.1-.2-2-1-4.2-.4-6.1-.6-.3-.9 0-.9.3v2.2l.9 5c-1.4.2-1.6.1-2.5-1.1a7 7 0 0 1-1.5-5.8c.1-.4.4-.9-.4-1.6a4.3 4.3 0 0 0-.4 3.8c.4 1.4.8 2.8 1.4 4.1l-2-.5a3.9 3.9 0 0 1-1.9-1.9 15.2 15.2 0 0 1-.3-9.9l.4-2c-1 .3-1.2.5-1.7 3.9-.2 1.6-.1 3.2.1 4.8 0 1.8.7 3.5 1.7 4.9l-8-1.4c-2.8-3.5-2.6-6.8-1.9-9.9l1.1-3.5c.1-.2 0-.4-.1-.6-1.7 1.6-1.8 4.1-2.2 6.3-.4 2.5 0 5 1.2 7.3h-3.2c-1.5-2.3-1-4.3-.7-6.3-.9-.4-1 .1-1 .5-.4 2.1-.1 4.2.8 6.1l-1.2.6c-2-2.3-3-5.4-2.8-8.4-1.1-.1-1.1.6-1 1.2-.3 1.4.3 3.2 1.2 4.9l1 1.7a10 10 0 0 1-3.1-3.7 5.5 5.5 0 0 1-.7-4.3c-1.1.7-1.2 1-.9 2.1A13 13 0 0 0 9 33.7l.3.4-.9-.2c-1.1-.7-2.1-1.4-3-2.2C3 29.3 1.9 25 2.9 22.5l.3-.7c-.7-.5-1-.1-1.1.3-.3.9-.5 1.8-.4 2.7.3 1.7.7 3.3 1.2 5 .4 1.1 1 2 1.9 2.7a19 19 0 0 0 4.4 3l1.4 1.1c-1 .2-2 .1-2.8-.4-1-.5-1.9-1.1-2.7-1.7l-1.8-2.1zm7.6-21.8c-3.3 1.7-6 4.3-7.8 7.5l-.5 1.5.3.8.3.1.7-1.9c1-2.1 2.6-3.9 4.5-5.3l2.8-2 .3-.6-.6-.1zm-1.7 4.5L8 17a9.3 9.3 0 0 0-1.4 4.9c-.1.4.2.9.7 1h.1c.1-1 .2-1.9.5-2.9s.7-1.9 1.3-2.8l1.8-2.4c-1.2-.4-1.6-.1-1.8.3zm9.3 6.9-.8 1.5c-.4 1.8-.3 3.7.2 5.5.4 1 .9 2 1.5 2.8.4.6.8.5 1.1.1-1-.8-1.6-1.9-1.9-3.1-.5-1.9-.5-3.9 0-5.8l.1-.7-.2-.3zm-5.7-4.7c-1 1.6-1.6 3.4-1.8 5.3l.1 1.6.6-.2.1-.3c-.2-2.1.4-4.1 1.7-5.8l.3-.8c-.7-.2-.8-.1-1 .2zm7.9 7.5a15 15 0 0 0 .4 5.6c.2.9.8 1.6 1.5 2.2.5.4 1 .6 1.3-.2a3.2 3.2 0 0 1-2.1-2.4l-.3-2.7.1-3.2c-.8-.1-.9.3-.9.7zm15.5 11c.8-.4.7-1.3-.3-2.4-1 .6-.2 1.5.3 2.4zm.1-12.5c-.7 2.2-1.1 4.5-1 6.8l.4 2.1.9.7c-1.2-3.9-.2-6.9.6-10-.7-.3-.8 0-.9.4zm9.1 6.5-.1.8c.4 1.3.4 2.7.1 4l-1.1 3.6c-.1.3-.3.7.5 1 1.1-2.9 2.4-5.7 1.1-9.4h-.5zm-2.7 4.3c0 1-.7 1.9-.1 3.1.7-1 1-2.2.9-3.5l-.8.4zm34.1 6.4.2 1a13 13 0 0 1-1.4 11c-1.3 2-2.4 4.1-4.7 5.2-.4.1-.7.6-.6 1.1v.1l.7-.1a10 10 0 0 0 3.2-2.6 63 63 0 0 1 2.2-3.3c1.5-2.1 2.3-4.7 2.1-7.3-.1-1.5-.4-3-.8-4.5 0-.2-.4-.5-.6-.7l-.3.1zM39.9 23.6l-.5 1.2a88 88 0 0 0-.5 5.1c0 1.1 0 2.1.2 3.2 0 .5.2.9.9.7-.3-3.3-.2-6.7.4-10l-.5-.2zM15.5 10.2c-.9.6-1.2 1.8-.9 2.8l2.3-3 1.5-1.1A20 20 0 0 0 20.6 7l.2-.8c-2.6.8-3.8 2.5-5.3 4zm13.1 13.3c.8-.5 1-1.1.9-2.8-.9.5-.8 1.6-.9 2.8zm31 12.9c-.3 2.9-1.4 5.6-3.2 7.8-.3.2-.3.6-.1.9v.1l1-.7c1.8-2.5 2.9-5.5 3.2-8.6l-.3-.6c-.3.2-.6.7-.6 1.1zm-42-23.8c-.3.5-.2 1.2.2 1.7.7-2.6 2.4-4.3 3.6-6.3-1.2.2-2.8 2.1-3.8 4.6zm51.8 42.1.6.4 1.6-1a6.7 6.7 0 0 0 1.8-4.6c-1.1 1.9-1.9 4-4 5.2zm-56.3-45 .3.4.4-.1a6.6 6.6 0 0 1 3.6-2.5c.5-.1.3-.6-.2-1.1a7 7 0 0 0-4.1 3.3zm55.3 30.1-.3 1.6c-.3 2.7-1.6 5.1-3.6 7l-.8.9c.7.6.9.3 1.2 0 2.6-2.6 4-6.1 3.9-9.7-.1-.1-.3 0-.4.2zm.4 6.8c-.2 1.4-1 2.6-2.2 3.3-.2.2-.2.5-.4 1 1.9-.3 3.6-2.9 3.3-5.1-.4.4-.7.5-.7.8zm3.8-4.2v2.5c-.1 1-.4 2-.7 3-.5 1.6-1.4 3-2.7 4.1-.4.3-.6.6.1 1.1 3.3-2.4 5.1-8.5 3.4-11.9l-.1 1.2zM24.2 7.6a60.9 60.9 0 0 0-3.1 4c-.4.6-.6 1.3-.8 2-.1.2.1.6.1.8l.3.1c.2-1.4.9-2.7 1.8-3.8l3-3.2-.2-.2c-.4-.3-.6-.3-1.1.3zm19.5 17.2c-.2.2-.5.4-.5.7l-.4 4.8.2 1.1.5-.2.6-6.2-.4-.2zM65 37.9c.3 2.3-.5 4.7-2 6.5l-.6 1.1c2.3-.2 4.1-5.5 3.2-8.5-.8-.2-.6.5-.6.9zM27.2 8.5l-2.8 4c-.3.5-.4.9-.4 1.3l.2.6c.9-2.5 2.9-4.1 4.4-6.3-.9-.3-1.2.1-1.4.4zm2.3.3-1.8 2.8c-.5.9-.9 1.9-1.2 2.8-.1.3-.2.7.4 1 .6-2.8 2.6-4.7 3.9-7.2-.9-.3-1.1.3-1.3.6zm2.1.6-2 4.4c-.2.4-.2.9.5 1.5.3-2.6 1.6-4.4 2.9-6.6-.8 0-1.2.3-1.4.7zm1.6-.4c.4 2.7-1.5 4.4-1.8 7l.5-.3 1.6-3.3c.3-.7.5-1.5.6-2.3l-.2-1-.7-.1zm20.1 23.1c1-.7 1.1-2 .3-3.5-.7 1-.2 2.3-.3 3.5zm4.1 3.1c.9-.2.9-.2.3-1.2-.5.3-.5.3-.3 1.2zM34.9 8.8l-.3 2.4-.8 2.4c-.3.7-.8 1.3-.6 2.3 1.7-1.5 2.8-5.3 2-7l-.3-.1zm28.2 30.5c.4-1 1-1.7.4-2.8-.8.7-1 1.9-.4 2.8zm7.3 4.1c1.2-.1 1.2-.2.6-1.4l-.6 1.4zM36.3 9.3a5 5 0 0 1-.2 3.2l-.7 2.4v.7l.3.1c.9-2.2 2.2-4.2 1.2-7.1-.8-.1-.7.4-.6.7zm2.8.8-.9 4a3 3 0 0 0 .2 2.3L40 9.8c-.7-.4-.8-.1-.9.3zm2.3-.1-1.6 5.9.3.6h.3c.1-2.5 1.6-4.5 1.6-7l-.6.5zm1.8.1a121 121 0 0 0-1.1 6.8c1.1-1.1 2.1-5.4 1.6-7.2l-.5.4zm1.7-.3c.5 2.4.4 4.9-.2 7.2 1.5-2.2 1.7-5 .4-7.3l-.2.1zm1.9 3.2-.1 2.7c0 .9-.7 1.5-.3 2.5h.2a14 14 0 0 0 .7-7.6l-.4-.3-.4-.3.3 3zm1.6-.7c.7 1.5.8 3.2.3 4.8l-.4 1.8c2-1.2 2-5.8.2-7.7-.6.2-.3.7-.1 1.1zm2.2 3 .1 2.4c0 .8-.4 1.5.1 2.5.8-2.2.8-4.5.2-6.7l-.5-.5.1 2.3zm5.8 1.4.6 2.2c.2.7.6 1.5.7 2.3l.3 2.3c.1.7-.3 1.3.5 2.3.7-3.1-.2-6.1-1.7-9l-.4-.1zM53 15.4c.7 1.1.9 2.5.8 3.8l-.1 2.7c1.4-1.6 1-5.8-.5-7.5-.6 0-.4.5-.2 1zm1.5-.4c.4 1.5.8 2.8 1 4.1.2 1.3.2 2.6.3 4l.4.1c.5-2.1.4-4.4-.4-6.5-.1-.4-.1-1-.6-1.4l-.7-.3zm6.9 4.9c0 1.5 1 2.9 1.2 4.4l.6 4.7c.3-.4.6-.5.6-.7.1-2.5-.3-5-1.3-7.3l-.7-1.1h-.4zm-1.2 2.5.5 4.2c1.3-1.2.2-6.4-1.8-8.1.1 1.4 1 2.7 1.3 3.9zm4.2 3.1c.5 1.2.8 2.4.9 3.7l.1.8c.9-.2.6-.9.5-1.4-.2-2.1-.8-4-2-5.8-.3.8.1 1.8.5 2.7zm6.3 3 .5 1.7c.6 1.5 1 3.1 1.1 4.7l.3.6c.6-1.7-.2-5.6-1.6-8l-.3 1zm2.1 2.3 1.2 3c.4 1 .1 2.1.9 3.2.2-.3.3-.6.2-.9l-.3-2.6-1.1-2.3-.3-.4c-.1-.2-.3-.2-.6 0zm-7.1-7 2.1 7.2c.6-.7.5-2.2-.5-5.1-.1-.7-.5-1.3-1-1.8l-.6-.3zm2.4 1.7 2.1 7.1c.5-.7.5-.7.4-1.3a28 28 0 0 0-2-6.4c-.4.4-.6.5-.5.6zM14.8 39a2 2 0 0 1 1.1-1.3c2.1-1 4.4-1.6 6.7-1.9l3-.2c.4 0 1 .2 1-.4h.6l2.9.3c-.2.7-1 .4-1.5.4-3.4 0-6.8.6-10 1.9l-3.4 2-.3-.1a.6.6 0 0 1-.1-.7zm-1.9-1.6c-.1-.2.3-.5.5-.6l4.5-1.3.2.3c-1.6.6-3.4 1-4.5 2.6-.3-.2-.6-.6-.7-1zM27 39.8c-1.9 1.4-4.1 2.4-5.4 4.5l-1.2-.5c1.6-2.4 4.2-3.1 6.6-4zm-8.3 2.6c3.2-3 7.6-3.9 12-4.9-4.8-.6-9.7.3-14 2.6l1-.8c2.3-1.4 4.8-2.2 7.4-2.4l5.6-.6-.5-.7 3.5.8c1.4 5.1.1 9.3-1.7 13.5-.3-.4-.7-.7-.7-.9 0-.6.1-1.2.4-1.8l1.3-2.8-.3-.2-1.1 1.4-1 1.7c-.3.4.3 1.5-1.1 1.5.3-2.9 2.5-4.3 3.6-6.5-1.1.7-2 1.6-2.7 2.7-.8 1-1.4 2.1-2.1 3.1-.6-.4-.4-.7-.3-1 .7-2 1.9-3.8 3.5-5.3l.4-.5-.1-.4c-2.3 1.6-4 3.8-5 6.4-.7-.1-.6-.4-.6-.8a9.6 9.6 0 0 1 3.1-4.8c1.1-.9 2.3-1.6 3.5-2.4l-.6-.3.3-.7-.4-.3-2 .1c-3.2.5-6.3 1.6-9 3.4l-1.6 1.4-.8-.5zm5.7-4.1-4.4 2-1.6 1.1c-.4.3-.4.3-1.2-.4a18 18 0 0 1 7.2-2.7zM23 44c1.7-1.8 3.7-3.2 6-4.1l-6.1 5.5-.4-.3c.1-.4.2-.7.5-1.1zm4-1.4L25.3 46c-.2.4-.5.4-.9.1.3-1.3.8-1.7 2.6-3.5zM11.7 36c-.1-.2-.2-.5-.1-.6l1.1-.5c3.8-.6 7.6-.6 11.4-.2l.6.1.3.1c-2.3.1-4.7 0-7 .2-1.7.2-3.4.5-5.1 1l-.7.2-.5-.3c.1.1 0 0 0 0zm1.9-3.2c1.9-.1 3.8.2 5.6.9L12 34c.2-.6.8-1.1 1.6-1.2zm34.9 27.5c.1.7.1.7-.5 1.5l.5-1.5zm2.8 2.4.1-1 .6 1.4-.2.1-.5-.5zm.2-1zm-.3-11.3c1.1 2.7-.2 4.6-.3 7.1l-1.1-.4 1.4-6.7zm.9 4.7.3-2.4c0-1 .1-2-1.1-2.9l-.1-.5.1-1.9a6 6 0 0 1 1.6 4l.1 6.7-1.1-.4.2-2.6zm2 3.3-.5-5.5a7.6 7.6 0 0 1 1 5.7l-.5-.2zm-.7-8.5c2 2 3.3 6.6 2.4 8.7.2-2.9-1-5.8-2.4-8.7zm2.4 2.3a43.1 43.1 0 0 0-4.2-6.3c2.4 2.4 4.4 5.2 5.9 8.2.9 1.5 1.2 3.3.9 5.1l-1.2-.1c-.2-2.3-.1-4.6-1.4-6.9zm8 11.6 1.7.4c-.5.3-.7.4-1.1.2l-.6-.6zm0 0zM36 40.9s.1 0 0 0zm23.4 17.4c0-2-.6-4-1.8-5.6l-4.4-5.9-.4-.6c1.7.8 3.1 2.1 4 3.8 2 3.1 3.6 6.1 2.6 9.3v-1zM36 37.2c.2 1.2.6 2.5.1 3.6a5 5 0 0 1-.1-3.6zm-5.9-1.8c.1.1 0 .1 0 0 0 .1 0 .1 0 0 0 .1 0 .1 0 0zm30.5 20.4-1.3-3.5.2-.1c.8 1.3 1.6 2.7 2.2 4.1.3.8.5 1.7.5 2.6.1.7-.5.8-1.2.6a42 42 0 0 0-.4-3.7zM38.4 39.6l.1 1-.3-.1.2-.9zm23.6 15c.9 1.2 2.1 2.3 2.2 3.8.1.6 0 1.1-1.1.9.4-1.7-.4-3.2-1.1-4.7zM38.4 39.5v.1-.1zm0-.1v.1-.1zm-.3-1.3.4.1-.1 1.2-.3-1.3zm4.1 1.4c.5.6.7 1.4.3 2.1l-.3-2.1zm20.9 15.1c-2.1-3-4.6-5.6-7.5-7.8-1.3-1-2.7-1.9-4-3l1.7.8 5.7 3.5a20.3 20.3 0 0 1 6.8 8.5l.3 2.1c0 .2-.3.3-.5.4l-.4-.2c.2-1.6-1.1-2.9-2.1-4.3zm1.9-1.4.1-.1 2.3 2.8c.7 1 .6 1.7 0 2.3a237 237 0 0 1-2.4-5zm12.9 2.4c-.1-.1 0 0 0 0-.4 1.1-1 2-1.7 2.9a8 8 0 0 1-2.8 1.3l-.9.2 5.4-4.4zm-11.2-2.1.2-.1.7.9-.2.1-.7-.9zm10.5-16.3zm-.3-1.7c.8.8.5 1.2.3 1.7l-.3-1.7z"></path></svg>