<svg xmlns="http://www.w3.org/2000/svg" viewBox="0 0 80 80"><path d="m39.2 79.6-2.5-.2 1-1.4c1.6-2 2.9-4.3 3.8-6.7.6-1.5.9-3 1.1-4.6l-.1-1.2h-.3l-.2.7c-.1 2.1-.6 4.3-1.5 6.2a30 30 0 0 1-3.3 5.4l-.6.7c-.6.9-1.8 1.3-2.8.9l.7-.5c.7-.6 1.3-1.3 1.8-2 .8-1.6 1.5-3.3 2-5l-.4.5-1.2 2.3a8.1 8.1 0 0 1-4.6 4.5h-.9l-3.7-1.1 2.1-2.5a14 14 0 0 0 1.5-3l1.1-3-.3-.1-1.2 2.7a12 12 0 0 1-3.2 4.5c-1 .9-1.5 1-2.9.2l2.3-2.1c.9-.6 1.5-1.5 1.7-2.6l-2.2 2.3-2.6 2-1.5-.9.8-.4-1-.9 1.1-.2-1.4-1.1 1.4-.1.1-.2-1.3-1 1.7.2.1-.3-1.6-.9 1.9-.3c-.1-.5-1-.8-.2-1.4.3-.2-.7-.5-.1-.9l.9-.3-.4-.8 1.4-1.2-.3-.4.9-.2c.2-1.1 1-2 1.9-2.4L31 61a9.5 9.5 0 0 0 2.9-3.1c1.5-2.4 3-4.7 4.4-7.2.7-.8 1-1.8.9-2.9-.1-.3.2-.7.3-1.2l.2.7h.1v-2.4c2.1 2.5 4.8 3.9 7.1 5.8 1.9 1.5 3.4 3.5 4.3 5.7l.4.9a7 7 0 0 1 .5 6.4c-.3.7-.4 1.5-.3 2.2l-.7-.5-.2.1.6 1.2c1.6 2.5 2.1 5.5 1.4 8.4v1.2c-1 .1-1.6 1.4-2.9 1.3l.3-3.4-.3.9-.3 1.5c-.2.9-1 1.6-1.9 1.7-1.7.2-3.3.6-5 .9h-1.6c1-1.6 2-2.9 2.2-4.6l-.6 1.2c-.4 1.1-1.2 2-2.2 2.7l-.6.5c-.2.4-.5.5-.8.6zm5.7-21.1a22.5 22.5 0 0 1 1.9 15c-.3 1.7-1 3.3-1.5 5.1l.6-.4c1.1-2.6 1.8-5.3 2.1-8.1a18.8 18.8 0 0 0-2.6-11.7l-.5.1zm-10.3 12-1.3 2.2a14.6 14.6 0 0 1-4.1 4.1c-.3.2-.8.5-.6 1 2.2-.6 6.5-5.8 6.5-8.3l-.5 1zm15.8 3.6.2-2h-.2v2zm-20.2-4.6-.1.4c1.1-.7 1.7-2 1.6-3.3l-1.5 2.9zm7-5.1a8 8 0 0 0-.9 3.1c.6-.9 1-1.9 1-3l.4-1.8-.5 1.7zm4.8-.7h.2l.1-1-.3-.1v1.1zm-4.2-1.4.5-1.9H38c-.3.6-.3 1.3-.2 1.9zm15.9 8.5c-.3-1.7-.9-3.3-1.7-4.8.6 0 .8-.4 1-.9.2-.6.6-1.1.9-1.7.4-.8.7-1.6.9-2.5.1-1.4.2-2.9.1-4.3l-.2-2.5c-.3-.8-.7-1.7-1.2-2.4l-2.2-3-2.2-3.4.8.2c.2.9.9.7 1.5.9l2.4.6-.9.1v.3l4.2.9c.7.2 1.4.1 1.9-.4l-1.5-.1c-1.3 0-2.5-.3-3.7-.8H57c-.1-.6-.6-.5-.9-.5-1.8 0-3.5-.3-5.2-.8l-.5-.3c.9 0 1.8.1 2.6.3.8 0 1.6.6 2.6-.2l-2.7-.3c-.8 0-1.7-.2-2.5-.4-.7-.2-1.7.1-2.5-.8.8-.1 1.6 0 2.4.1.9.2 1.9.2 2.8 0a6 6 0 0 0-3.2-.6 17 17 0 0 1-3.1-.6l5.5.3v-.4c-1.1-.5-2.5-.1-3.7-.6l.2-.2c2 .2 4.1-.2 5.9-1.1.8-.6 1.9-.5 2.7.1 1.6.4 3.1 1 4.4 1.9l1.8 1.3c.3.2.5.6 1.2.3-1.7-1.8-4.1-2.4-6-3.9 2 .4 4.2.4 5.6 2.4.6.9 1 1.9 1.1 3l.5 4.4c.7.1.8-.2.8-.7l.1-1.9.5-1.5 4 2.5c-.3-.6-.8-1.2-1.4-1.5l-.9-.5c-1-.4-1.7-1.4-1.7-2.5 0-1.3-.6-2.5-1.5-3.3l-1-1.3a17 17 0 0 1 6.7 3.1l4.5 3.8.6.2.4.9c.7.6.8 1.6.2 2.3l-.3.3-.4.6-2.2-2.4a2 2 0 0 0-1.7-1l1.5 1.2 1.6 2.2c.4.4.4 1 0 1.4l-2.1 3.3-1.5-2.4-.2.1 1 2.2a1 1 0 0 1-.2 1.4l-.2.1-2.3-3.2-1.1-1.2c-.6-1.1-.9-1.3-1.7-1.6.4.7 1 1.2 1.6 1.7l1 1.3a136 136 0 0 0 1.9 3.9l-1.2 1.8-.8-1.3-.2.2c1 2.2-.6 3.7-1.7 5.5l-1.2-1.5c-.2 1 1.3 1.7.3 2.8l-.9-1.2a21 21 0 0 0-8.1-8.1c-.6-.5-1.4-.6-2.1-.4 2.4 1 4.6 2.4 6.4 4.3 1.8 1.8 3.3 4 4.2 6.4l-1.6 2.1-2.2-3.7c-.3-.7-.8-1.2-1.4-1.4l1.2 1.6 1.4 2.8c.5 1.2.4 1.3-.8 2.2l-.7-1.1c-.3-.4-.7-.6-1.2-.5.1.9 1.5 1.3 1 2.5l-3.9 2.6c-.3-2-.3-3.9-1.4-5.5l.7 3.3.1 1.7c.1.8-.5 1.4-1.3 1.5v-4.2h-.2v2.3a3.2 3.2 0 0 1-2.8 3.4c.3-1.8.3-3.5.1-5.2zm2.4-8.1c1.5 1.7 3.4 3.1 4.6 5l.4-.2-.6-1.2-3.2-3.1c-.2-.3-.6-.5-1-.5 0-.1-.1-.1-.2 0zm8.1-6.5 1.9.8-.7.4.6.5.4.3c-.5.7.6.6.5 1.2-.1.7.7.6 1 1v.2H67c.6.7 1.1.9 1.9.4l-.8-1.9a9.7 9.7 0 0 0-2.6-3.4l-1.3.5zm1.4-.5c-.4-1.1-1.3-1.2-2.6-1.2.7.7 1.6 1.1 2.6 1.2zm-4.3-2.5c.8.5 1.8.7 2.8.7l.1-.4-2.8-.7-.1.4zm10.9-3.1L74 52c.3.5 0 1.3 1 1.7 0-.7-.3-1.3-.8-1.8-.4-.8-1-1.4-1.7-1.9l-.3.1zm-13.8.4c.4.2 1 .4 1 .7.1.9.9.7 1.4.9.6.3 1.3.2 1.9-.2l-1.5-.4.4-.6c-.8-.3-1.6-.4-2.4-.5l-.8.1zm2-1-4.3-.7c1.2 1 2.9 1.2 4.3.7zm4-.1.2.1h.1l.2-.2a8.3 8.3 0 0 0-3.6-3.6 19 19 0 0 1 3.1 3.7zm-5.3-4.7 1.2.8c0-1-.4-1.1-1-1.1l-.2.3zM16.9 70.9l.1-.2.7.3-.1.1-.7-.2zm-3.7-3.6c.6.3 1.2.7 1.7 1.2-.6-.3-1.1-.7-1.7-1.2zm6.9.4c.7-.1 1.4-.2 2.1-.1v.2l-2.1-.1zm-6.9-.4zm-.9-.5-2.4-3.1-.5-.8c.9-.2 1.6-.4 2.4-.4 3-.2 5.9-1.3 8.3-3 1.3-.8 2.5-1.7 3.6-2.8l.8-.8-.2-.2-.6.2-4.4 3.3a16 16 0 0 1-10 2.9l-1.2-.4 1.1-.5 2.7-.6c1.7-.3 3.3-1 4.8-1.8.4-.3.9-.5.9-1.2-2.9 2.3-6.4 2.5-9.7 3.3L7 59.3c1.2-.4 2.4-.7 3.7-.9a13 13 0 0 0 3.8-1.2l.8-.6c-1.3-.1-2 .6-2.9.9l-3 .7-2.9.5-.8-1.6c2.8-.7 5.7-.7 8.1-2.2-2.8.8-5.6 1.2-8.5 1.4l-.8-1.7c6.7-.5 13.3-2.7 18.9-6.4-.2-.6-.6-.3-.9-.1-2.1 1.1-4.2 2.2-6.4 3.1a32 32 0 0 1-10 2.5l-.9.1c-1.1.1-1.3 0-1.7-1.2 3.4-.4 6.9-.3 9.9-2.1C10.1 52 6.6 52 3 52.1l-.8-1.5 3.8-.7 2.6-.5 5.2-1.1c4.2-.8 8.3-2.3 12-4.4.4-.2.7-.5 1-.9-2.6 1.1-5.1 2.5-7.8 3.4-2.7.9-5.7 1.4-8.5 2.1-2.8.7-5.6 1.2-8.5 1.3l-.4-.6-.4-.8 1.5-.3c2.6-.3 5.2-.7 7.7-1.4l1.5-.6c-3.6.8-7.3 1.3-10.9 1.6l-.6-2.2 2.1.2c2.9-.1 5.8-.5 8.6-1.3.4-.1 1.1-.1.9-.9-2 .3-4 .8-6 1s-4 0-6 0v-.9l5.6-.4c1.8-.1 3.6-.4 5.3-.9-3.6.4-7.2.6-10.8.5l-.1-.6.1-.8h1.6c4.9.2 9.6-.8 14.4-1.6l2.2-.4c.7 0 1.3-.4 1.6-1l-2.6.5c-3.3.6-6.6 1.3-9.9 1.7-1.6.2-3.3.2-4.9.1H.3c-.3-.7.1-.9.6-.9l3.1-.2 7-.8.9-.3.4-.4c-4 .8-8 1-12.1.8.2-.3.3-.7.5-.7l1.6-.3c2.5-.1 5-.5 7.5-1.2l2.7-.6c.8-.2 1.5-.5 2-1.1-4.5 1.4-9 2.7-13.8 2.5v-1.1l2.8-.1c1.8.3 3.7.2 5.5-.3H6.7l-3.1-.2-1.2.1-1.5.1-.1-.3c.2-.1.4-.3.7-.3l5.3-.2c1.2 0 2.4-.4 3.4-1-.4-.2-.7-.2-.9-.2-2 .4-4 .7-6.1.6-.6.1-1.2-.2-1.3-.8v-.1h1.7l-.9-1.1.1-.2 2.1.7.1-.1-1.8-1.6c1.2.2 2.1 1.1 3.3 1.3l.2-.3-2.5-1.5-2.1-1c0-1.2.8-1.7 1.8-1.8l4.7-.6 3.4-.4c-2.9-.2-5.8 0-8.7.5l-.1-.2 2.2-3.9c.1-.3.4-.5.7-.5 2.2-.4 4.5-.4 6.7.1 1.2.2 2.3.5 3.5.6A24 24 0 0 0 6 22.3c.2-.7.5-1.5.9-2.1.4-.5 1-.8 1.7-.6 2.9.7 5.8 1.6 8.5 2.8.4.3 1 .4 1.5.2-3.5-1.7-7.3-3-11.1-3.8 0-.7.4-.9 1-.9 1.4 0 2.8.3 4.2.7l2.9 1c.4.2.8.2 1.3.3a21 21 0 0 0-8.4-2.5l.1-.4c1.5-2.7 1.5-2.9 4.7-1.7 2.4.9 4.7 2 6.8 3.4l.8.3c-.7-1.4-6.7-4.3-10-5 .1-.9.8-.7 1.3-.6l4.4 1.3c1.2.4 2.3 1 3.4 1.5-.5-.7-1.2-1.1-3.7-2L12 12.7c.3-.5.9-.7 1.4-.6 1.4.3 2.7.7 4 1.4a25.4 25.4 0 0 1 9.5 6.9c.2.3.5.5.9.7a25 25 0 0 0-14.4-9.7l1.8-1.4 1 .5.4-.6c-.1.1.2.1.4 0l-.1-.5-.1-.5.2.1 1 1.8c.5-1.1-.7-1.6-.4-2.5.8.6.6 1.7 1.4 2.4.2-1-.6-1.7-.6-2.7 1.1.8 1 2 1.6 3.2.4-1.5-.6-2.4-.7-3.4.8.4.8.4 1.4 3.8.5-.5.5-.5.1-2l-.5-2.1.3-.1c.4.1.5.3.6.6l.6 3.1c.1.4.2.8.5 1.2.4-.9-.2-1.7.2-2.6l.6 3.3.3-.1c.1-2.3-1-4.4-1.1-6.7l1 1.9c.5 1.9.8 3.8 1.2 5.8l.3.3c.1-2-.6-3.9-.9-5.8l.4-.2 1.3 3.9-.4-2.5-.5-3.9c.9.5 1.6 1.2 2.3 2l2.9 3.5 1.2 2.5c0-1-.4-1.9-1.1-2.6a34.9 34.9 0 0 0-5.2-6.3l1.8-.8c1.2.6 2.3 1.5 3.1 2.5 3.5 4.2 5.9 9.3 6.9 14.7l.4 1.6c.4-1.7-1.1-7-2.9-10.5a25.8 25.8 0 0 0-6.4-8.6c1.2-.4 1.3-.4 1.9.4l2.6 3.5.6.7 1.2 2.1.3-.2L33 8.1c-1-1.8-2.2-3.5-3.6-5 1.5-.8 1.7-.8 2.6.5l2.2 3.3a16 16 0 0 0-2.6-4.6l1.2-.3a32 32 0 0 1 4.3 10.7c.4-1.7-.2-3.6-3.5-10.7.4-.3.8-.5 1.1 0l1.2 2.4 1 2.3A19 19 0 0 0 35 1.5l1.4-.5 1.5 3.8c.1-1.3-.6-2.4-.8-3.7l1.5-.3c.8 1.8 1.4 3.6 1.5 5.6l.4 2.9.4.6.3-.1L39.6.9c.8-.5 1.1-.4 1.4.4.3.8.4 1.6.8 2.4.3-1.1-.5-2.1-.4-3.2l.9-.1c.7 1.8 1.1 3.7 1.1 5.6.2-1.8-.4-3.5-.4-5.4h1.4l.4 1.4h.2l.3-1.4 1.2-.1.8 2.2v-2l.9.1.5 3.9h.2V.9l.7.2c.7.1.9.5.9 1.2.1 3.6-.4 7.2-1.4 10.6l-1.6 5.3c.3.3.6.3.7-.1l.5-1.6c.6-2.7 1.4-5.5 1.9-8.2.3-1.8.4-3.7.6-5.6l.1-.9c.8-.1 1.1.3 1.1.9l.1 3.7.2 1.6.3-5.9 2.2.6-.3 3.4h.2l.5-3.3 3.2 1.1-.8 1.2.9-.2c.8-.6.8-.6 1.9 0-.8.6-2.2.6-2.7 2 1.4-.7 2.3-1.7 3.7-1.4l.2.4-.9.6-2 .8c-.4.2-1 .4-.7 1.4 1-1.1 2.3-1.3 3.5-1.9 1.4-.8 2.3.2 2 1.5l-.1.6c-.6-.1-1.2.2-1.5.6a85.8 85.8 0 0 0-4.8 2c-.3.2-.5.4-.6.8 2.2-1 4.4-1.8 6.6-2.5l-.5 1.5.3.1 1.4-3.3c1.3.6 1.3.7 1.2 1.9-.3 2.2-1.2 4.2-2.6 6-.5.6-.8 1.3-1.1 2 2.3-2.3 3.8-5.1 4.4-8.3.9.2 1.1.5.8 1.2-.4.9-.7 1.9-.8 3l1.5-3.1.6.5a36.6 36.6 0 0 1-11.4 16c.2.5.5.6.8.3 3-3.1 6.2-6.1 8.3-9.8l2.3-4.6.6-1.2c.9 1.5.6 3-1.9 6.8 1.2-.8 2.2-2.5 3.1-5.8l1.3 1.4c.2.4.2.8 0 1.2l-2 3.7c-.7 1.1-1.6 2.1-2.5 3.2.8-.3 1.3-.7 3-3.1.9-1.2 1.5-2.5 2.3-3.8.5.1.8.6.7 1.1l-.1.2c-.5 1.7-1.4 3.3-2.5 4.7 1.1-.6 2-2 3.1-4.5h.1c2.1 2.5 1.8 2.6.1 4.8a17.3 17.3 0 0 1-5.5 4.6l-4.7 2.8c.5.1.8.3.9.2l.9-.5 4.9-3.1c1.6-1.2 3.1-2.6 4.3-4.2l.9-1.3c1.2 1.9 1.1 2.4-.5 3.7l-2.8 2.2v.3c1.6-.9 3.1-2 4.5-3.3.9 1.4.8 1.7-.4 2.6a14.7 14.7 0 0 1-4.9 2.3l-1.5.5c2.9-.3 3.6-.6 7.7-3.1.4.6.3 1.4-.3 1.9l-.2.1-2 1.1-4.5 1.7-.9.4a22 22 0 0 0 8.3-3.1c.4.4.4.7-.1 1l-2 1.1c.8.2.8.2 2.9-.8.4.7.5 1.5.5 2.2a21 21 0 0 1-5.4 1.6c1.9.3 3.6-.5 5.5-.8l.3 1c-.6.6-1.4 1-2.2 1.1a74.6 74.6 0 0 1-6.6 1.2c3 .1 5.9-.4 8.8-1.3.2.2.2.6 0 .9l-.3.2c-.7.3-1.5.5-2.3.6l-5 .4c.9.4 1.9.5 2.9.3l1.1-.1a49 49 0 0 0 3.8-.4V38c-2.7.4-5.5.4-8.2.1l-8.1-1.5c.3.4 1 .6 3 1l3.2.7 3.4.4 3.3.1h3.4l-.1 2.1c-1.9-.2-3.5-1.1-5.5-.9l5.3 1.6-.2 1.9-5.2-2.5-.1.2 2 1c.6.3 1.3.6 1.8 1 1.5 1.2 1.7 1.3.9 3.4l-1.3-.6c.3.8 1.8 1.2.7 2.3l-1.5-1.2c-2.3-2.7-5.1-5-8.3-6.6-1.4-.6-2.9-.9-4.4-1.1l-.5-.2-6.9-3.1c-.8-.3-1.5-.7-2.1-1.3-.8-.9-2-1.4-3.2-1.5a5 5 0 0 0-3.2 1l-1.3.6c.2-.5.6-.9 1-1.1.4-.3.8-.5.8-1.2 0-.5.7-1 1.1-1.5l-.3-.3 1.8-1-.1-.2-1.5.5-.1-.2 3.3-1.8-.6-.4c.4-.4 1.2-.3 1-1.2l.8-.6-.1-.2-2.7 1.3c-.6.3-.4 1.2-1.1 1.5-.4.2-.1 1-.8 1.2-.5.1-.8.5-.7 1 0 .2-.7.4-.9.7l-.9 1.4-.3-.1-.5-3.5c-.4-2.7-1-5.3-1.3-8-.2-2.5.2-5.1 1.2-7.4l.1-.5c-.1-.7 0-1.4.4-2l.1-.9-.3-.1-.9 1V9.8l.1-3.7-.2-1.3h-.3v1.9c.1 2.7-.1 5.5-.7 8.1l-.5 1.2c-.7 1.7-1.8 3.3-3 4.6-.3.3-.6.7-.7 1.1-.7 1.6-1 3.4-1 5.1.1 1.6.2 3.2.1 4.7l-.4 2.2a1 1 0 0 0-.3-.5c-.3-2.2-1.9-3.8-2.6-5.8l-.3-.3a9 9 0 0 0 1 3.9l.6 2.1-.7-.5a5.2 5.2 0 0 0-3.6-1.9l-7-1.1-4.3-.4-3.2-.3h-4l-1-.1h-1.3c-.5.1-1 .1-1.5-.1-.1-.1-.4 0-.6.1l-1.2.3.3.7-2.4-1.1v.8l-2-.6.5 1.2c-.6-.2-1.2-.8-1.9-.5-.1.6.3.9.8 1 .1-.3.3-.3.6-.1l2 1.2c.2.2.8.3 1.4.1L6 30.5c-.2-.1-.3-.4-.4-.7l3.3 1.6.9.3a1 1 0 0 0-.3-.7L7 29.5c.5-.2.8 0 1.2.2l2.2 1.3c.4.3 1 .4 1.5.2l-1.5-1-1.3-.8c.3-.3.6-.1.9.1l2.3 1.3 1.1.3-.5-.8a5 5 0 0 0 2.1.1l1.3.1 1.4.1c2-.2 3.5.9 5.2 1.6 1.4.7 2.7 1.4 4 2.3l2.7 1.7c1.7 1.3 3.5 2.3 5.5 3.1l.8.5-1.3.9a5 5 0 0 0-2.7 4.1c-.4 2.8-1.1 5.6-1.7 8.4l-.5 2.6c-.2 1.6-.7 3.2-1.5 4.6-.5.9-1.1 1.5-2.2 1-.7.6-1.1 1.4-1.2 2.3-.6-.1-1.2.1-1.6.5-.5.5-1.3.6-2 .4l.5.9-1.8-.1.5.9-2-.2.4.8h-.2c-.8-.2-4.3-.3-5.3-.5l-.5.1.7.7c-.7 0-1-.2-1.2-.4zm-.3-1.4.1.4c1.3-.5 2.9-.3 4-1.5a49 49 0 0 0-4.1 1.1zm7.3-2.5c.2.7.6.5.9.3 1.7-.8 3.4-1.7 4-3.7-1.3 1.6-3 2.7-4.9 3.4zm7.2-4.1c1.5 0 2-.4 2.1-1.6l-2.1 1.6zm-4-6.1a28.5 28.5 0 0 1-5.6 2.6l-.1.2c1 .4 4.2-1.1 5.9-2.8h-.2c.1 0 .1 0 0 0zM15 43.3a13 13 0 0 0 5.1-1.4l-.1-.3-5 1.7zm45.2-7.1c.7.4 1.5.6 2.3.5l.1-.4-2.3-.3-.1.2zm-3-2.5c.1.6.5.6.8.5l3.8-.2c3.4-.2 6.7-.8 9.9-1.6.8-.1 1.5-.5 1.9-1.1a56.1 56.1 0 0 1-16.4 2.4zm4.8-3.5-5 1.5-.9.5.1.4c2-.6 4.1-.8 6-1.9 0-.3-.1-.4-.2-.5zm-8.8-.2c1.5 0 2.2-.5 1.9-1.4L53.2 30zm-18.1-1.7c.3-.9.1-1.9-.6-2.6l.6 2.6zm-23.8-3.5.2.3 4.5.6 2.3.4 3.6 1.1.1-.2c-1-.7-2.2-1.1-3.4-1.3l-3.6-.6c-.9 0-1.7-.3-2.7-.3h-1zm24 1.1.3 1.1v-1.1h-.3zm-1.9-2.6.6 3.4.4-.1-.6-3.4-.4.1zm18.2 2.9L55 24c-2.8.8-3.5 1.3-3.4 2.2zm-19.4-5.8.3 2.4c.3 1.7.3 1.7.8 2.2v-.4l-1.1-6c-.1-.5 0-1.2-.9-1.3l-.2-.4-.4-1.6c-.1-.4 0-1-.6-1.2l-.1.2c0 .6.1 1.2.4 1.7.4.8.6 1.7.6 2.6l.6 2.6-.2-3.3c.5.7.8 1.6.8 2.5zM5.1 24.8c1.3.2 2.7.2 3.9-.1-.6-.3-1.3-.5-2-.5-.6 0-1.3.2-1.9.6zm47.3-.3 1.9-1.4 1.8-1c-2.2.3-3.3 1-3.7 2.4zm-32.1-1 1.8.6.1-.3c-.3-.3-.7-.5-1.1-.5-.3 0-.6 0-.8.2zm11.4 0h.3l-.4-2.1.1 2.1zm21.8-1.4.2.2 3.6-2.3-.2-.2c-1.2.6-2.8.9-3.6 2.3zm-31.2-1.8 1.7 1.4.2-.2c-.5-.5-1-1.1-1.7-1.3-.1-.1-.1 0-.2.1zm7.4-3.3.6 4.2h.3c-.1-1.4-.2-2.8-.5-4.2-.4-2.8-.6-3.5-1.5-4.3l1.1 4.3zm24.5 3.6c1-1.2 2.9-1 3.8-2.3l-2.5.9c.5-.5 1.1-.8 1.8-1.1 1.3-.6 1.3-.5 1.3-1.1l-3 1.1c-1.1.4-.9 1.6-1.4 2.5zm-26-5.9 1 5c.2-1.1.1-2.3-.2-3.3-.1-1.1-.5-2.2-.7-3.2-.1-1-.5-2-1.1-2.9l1 4.4zm27.4 2.4-.3.4c0 .2.2.3.4.5l2.2-1.5c.4-.3 1-.4 1.2-1.2-1.3.4-2.4 1-3.5 1.8zM25.4 7.9c0 .4-.1 1 .2 1.3.4.5.7 1.2.8 1.9l1.1 5.5.3 1.2.3-.1c-.4-3.3-1.1-6.6-2.1-9.8h-.6zm12.8 9c.4-.6.5-1 0-1.4v1.4zm16.6-.4.2.2 4.2-1.8c.2 0 .3-.1.4-.3l.2-.8c-1.6 1.3-3.8 1.2-5 2.7zm-3.4-.4.2.1c.5-.7.6-1.5.3-2.3l-.5 2.2zm-25.5-.6.2.1c.3-1.2.1-2.5-.5-3.5l.3 3.4zm29.7-.3 4.4-2.1.3-.2c.4-.3.2-.6-.1-.8L59 13c-.7.4-1.5.6-2.3.9-.4.4-1.2.4-1.1 1.3zm-14.3-.3c.7-.9.5-2.2-.3-2.9l.3 2.9zM20 13.6l.9.4.1-.2-.8-.5-.2.3zm40.9-2.7c-1.4 1-3.4 1.2-4.7 2.7l.5.3c1-.9 2.2-1.5 3.5-1.8l1.2-.9-.5-.3c.1 0 .1 0 0 0zm-46.7.3 3.9 1.4a6.6 6.6 0 0 0-3.4-1.5 1 1 0 0 0-.5.1zm40.7.4.2.1.3-1-.2-.1-.3 1zm-1.9-.9c-.2.3-.4.6.2.9A7.8 7.8 0 0 0 54.5 8L53 10.7zm8.8-3.4-1.7.9c-.5.3-1.1.5-1.6.9-.3.2-.5.5-.1 1 1.1-1.7 3.3-1.6 5-2.8l-.9-.2a4 4 0 0 0-.7.2zM47.5 8.8V5.2L47.2 3l.3 5.8zm-5.2-1.7.1 1.7h.1V7.1h-.2zm14.2-.8c.4-1.5.3-1.8-.3-2.6l.3 2.6zM51.9 66s.1 0 0 0zm0 0zm1.8-6.4h.2l.1 1.2h-.3v-1.2zM32 57.1l-.6.7c-.7.5-1.2 1.1-1.4 1.9-.1.3-.4.5-.6.7 0-1.7 1.4-2.4 2.6-3.3zm20.5-.2.8.9-.2.1-.6-1zM31 52.8a9 9 0 0 1 1.9-4.1c.2-.3.6-.6.2-1-.1-.1.1-.3.2-.5.2-.4 1.1-.7.4-1.4l.4-.5.4-.5-.5-.3 1.2-1.1-.5-.5 1.5-1.1-1.4-.2c1-.8 2.3-.9 3.1-2l-.7-1.4.2-.1 1.2 1.5-1.1 1.3a13 13 0 0 0-2.1 3.6c-1 2.2-1.2 4.6-2 6.9l-.9 2 1.2-.1.2.2c-.3.2-.6.7-.9.7-.8.1-1 .6-1.2 1.2-.2.7-.3 1.4-1.3 1.8-.1-1.4.1-2.9.5-4.4zm21.4 4 .1.1-.1-.1zm.1 0zm-.7-1.7.6-.4c.1.8.5 1.4.1 2.1l-.7-1.7zm-1.7-2.9c.3.2 1.1-.1 1.1.6l-.4.7-.7-1.3zm-15.9-.5c.5-2.9 1.4-5.8 2.7-8.5l2-2.6c.7.6.9 1.5.5 2.3-.6.7-1.1 1.5-1.4 2.4-.1.5-.8.9-1.2 1.3-.6.6-.6.8 0 1.4-.4.4-1.2.7-1.1 1.5h.6l-.1.2c-.5.6-1.6.9-1.2 2l-.7.6-.1-.6zm15.9.4s0 .1 0 0c0 .1 0 .1 0 0zm-.1 0s.1 0 0 0c.1 0 0 0 0 0zm-5.4-4.4-2.4-1.6a4 4 0 0 1-1.6-4.3c1 .1 1.8.8 2.2 1.7.6 1 1.3 1.9 2.2 2.7 2 1.7 3.7 3.6 5.1 5.9l-5.5-4.4zm4.4 1h.2l.2.6-.2.1-.2-.7zm27.7-1.6zm0 0zm-11.6-4.5a3.5 3.5 0 0 0-2-1.6c-1.8-.7-3.6-1.1-5.6-1.2-1 0-2 .2-3 .5a4 4 0 0 1-3.2.1H51l-.1.1.5.7-2-.5.4.7c-1.4-.7-2.9-1-4.5-.9.1-.2.2-.5.4-.6.5-.1.9-.3 1.4-.3l2.7-.4c2.9-.7 5.9-.7 8.8-.1.6.2 1.2.5 1.9.6.7.2 1.3.7 2 .4l.5.1a6.2 6.2 0 0 1 3.3 6 7 7 0 0 0-1.2-3.6zm-23.4-5.2.9.4c1.5.8 1.6 1.4.5 2.8-1.9-.9-2.5-2.1-1.4-3.2zm-7.5-.2.1-.1 1 1.2-.3.2-.8-1.3zm-1.7-.6.2-.2.8 1.1-.2.2-.8-1.1zm5.2 0-2.3-1.4a15.6 15.6 0 0 0-6.1-2.9c.7 1.3 2.1 1.9 2.6 3.2-.8 0-.8-.6-1.2-.9-.5-.5-.6-1.4-1.7-1l-1.5-1.5c-.3-.5-.9-.8-1.5-.7-1.1.4-1.1.4-1.9-.7l4.2.3 3.9.5c1.5.3 2.9 1 4.1 2l2.6 2.2-.7.8-.5.1c.1 0 .1 0 0 0zm-6-2.5c.8.1 1.1.6 1.3 1.9l-1.3-1.9zm11.9.1.2-1.9c0-1.3-.2-2.6-.6-3.9a3 3 0 0 1-.1-2.3l.3.8.6-1.3h.2l-.3 1.4c-.1.4-.5.8.2 1.1v.6l-.3 1.3 1-.6a79 79 0 0 1-.3 1.9l.7.2.3 3.8-1.9-1.1zm-3.3-.2 1.3-2.9c.3-.5.4-1.2.1-1.7-.2-.3.1-.8.3-1.2.8 1.7 1.1 3.5.9 5.3-.1.6-.3.9-1 .9l-1.6.2V34zm-39-1.5.2-.3.6.4-.1.2-.7-.3zm.3-1.6.2-.2 1.1 1c-.5-.1-1-.4-1.3-.8zm19.2-.7v-.1l.6.1v.3l-.6-.3zm-8.1.1s.1 0 0 0c.1.1 0 0 0 0zm-2-.8c.7 0 1.4.2 1.9.8l-1.9-.8zm-1.7.1zm0-.1zm41.8-.9 1.3-.8c0 .8-.9.6-1.2 1 .1-.1 0-.2-.1-.2zm1.4-.9zm-9.5-4.4.4-.6.2-.1-.1.3c-.1.1-.2.3-.5.4.1.1 0 0 0 0zM21.3 6.6h.1l.2.6.1.7h-.1l-.3-1.3zm2.1-1.2c.6-.3.9-.2 1 .2.2.6-.1.9-.7 1.2l-.3-1.4z"></path></svg>