<svg xmlns="http://www.w3.org/2000/svg" viewBox="0 0 80 80"><path d="m16.9 70.3 3.5 2.6-1.4-.5a7 7 0 0 1-2.1-2.1zM8 64l-1.1-1.3.2-.2c.5.4.8.9.9 1.5l.9.7-.2.2c-.3-.3-.6-.5-.7-.9zm16.1 4.1 2.5 6.7c-1.2-.7-2.7-4.7-2.5-6.7zm-10.6-7.5c-.6-2.6-.9-5.4-.7-8.1l-.5 2.6h-.2l-.1-2.4.2-2.5.3-2.4c.1-.8.3-1.6.6-2.3l.9-2.4.9-2.2 1.1-2.2 1.2-2.1 1.5-2.1c.4-.6 1.3-.8 1.6-2a9.6 9.6 0 0 0-2.9 2.4 23.6 23.6 0 0 0-6 12.6c-.3 1.8-.6 3.6-1.1 5.4a3 3 0 0 1-.3-1.3l.2-2.8c0-.9.5-1.9 0-2.8a.6.6 0 0 1 .1-.7l1.6-4 1.1-2.4c.8-1.2 1.7-2.2 2.6-3.3l.5-.8-.2-.2-.9.7a26.2 26.2 0 0 0-5.9 13.2l-.4 1.2c-.1-2.5.3-5 1.2-7.4-.7 1.3-1.2 2.6-1.5 4.1-.6 2.7-.7 5.6-.4 8.5v.8l-.2.4a22.2 22.2 0 0 1 1.3-16.2 12 12 0 0 0-2.2 4.7l-1 3.8c-.4 2.1-.5 4.3-.2 6.5 0 .2 0 .4-.2.5l-.3-.9c-.6-3-.9-6 .4-9 .2-.4-.2-.7-.2-1 0-.6.2-1.3.5-1.8.9-2.2 2.1-4.2 3.6-6 3-3.6 7-6.3 11.4-7.8 1.3-.4 2.6-.6 3.9-.6l-5.1 2.3.1.3c2-1.2 4.2-1.9 6.5-2.2l-4 1.6.1.2 4.6-1.6.1.3-2.5 1c-.9.3-1.7.7-2.5 1.2a33 33 0 0 1 11.2-2.3L28 30.4l.1.3 3.8-.9c-1.6 1.4-3.8 1.7-5 3.6l3.7-2c1.5-.7 3.1-1.2 4.6-1.7.3-.1.6 0 .8.1l-2.4.9c-3 1.4-5.7 3.4-7.9 5.8L22.2 40c-1.7 1.9-3 4.1-3.8 6.5l-2 6.3-.1-2.5c-.7 2.7-.3 5.4-.4 8.2l-.3-1.2-.7-5.2a32.4 32.4 0 0 1 6.3-16l.4-.8c-1.6.8-4.6 6.1-5.9 10.1A32.7 32.7 0 0 0 13.9 57c.2 3.9 1.1 7.7 2.6 11.3-1.9-2.4-2.5-5-3-7.7zm.2-10L14 48l.5-2.8c-1.3 3-1.5 4.6-.8 5.4zm-2.2-13.2.5-.3c.2-.8.7-1.5 1.4-2l.7-.9c-1.2.8-2.5 1.5-2.6 3.2zm11-3.4c1.9-.8 3-2.7 4.9-3.3-1.9.2-4.6 2.1-4.9 3.3zm3.2.1.2.2.8-.9-1 .7zm-5.8 32.4c-.7-2.4-1.1-4.8-1.2-7.2l.1-1.4.2.6c.1 3.2.7 6.5 1.7 9.6l.2.9-.2.1-.8-2.6zM8.3 60.7l.4 1.1-.3-.1c-.3-.2-.4-.5-.1-1zm-3.4-5.2a102 102 0 0 0 1.9 5 5.9 5.9 0 0 1-1.9-5zm20.4 5.2-.1-.1-.1.1-.2.1v-1.5l-.4 1-.3 1v-1.6l.2-1.8c.4-2.8 1.2-5.6 2.4-8.2 1.7-3.6 3.8-7 6.4-10.1l4.2-4.4a3 3 0 0 1 1.2-.7l-2.5 2.8a7 7 0 0 0-1.9 3.2c0 .3-.4.5-.6.8l-3.4 5.4c-.1.1-.1.2.1.5l.7-1.1a36 36 0 0 1 6.7-8.8l.7-.5a3 3 0 0 1-.4.8l-1.8 2.3-.6 1.2 4-4.8c1.4-1.5 3-2.8 4.8-3.7-.5.1-1 .2-1.5.5l-2 1.3c-.9.4-.9 1.6-1.9 1.5l-.1.2c.4.8-.3.7-.7 1l-.3-.2-2.2 2a3 3 0 0 1-.7.5l.4-.8a32 32 0 0 1 6.2-6c.4-.2.7-.7 1.2-.3.1.1.3-.1.4-.2a70 70 0 0 0 7.4-5.8c1-.8 1.7-2 1.8-3.3l-.4.8c-.5.8-1.1 1.4-1.8 2a35.6 35.6 0 0 0-6 4.9l-.8.5-2 1c-1.2 1-2.8 1.3-4 2.2l-1.9 1.3-.2-.2.9-.9 2.4-1.9c.5-.4.9-.9 1.6-.6.1.1.3-.1.5-.2l5.6-4.1v-.2l-.6.3-1.9 1.4c-.5.5-1.2.7-1.9.7-.9.1-1.7.4-2.4 1-1.4 1-2.7 2.2-4 3.3l-1.8 1.8c-.3.3-.6.7-.6 1.2-.1.5-.3.9-.7 1.2A41.5 41.5 0 0 0 24 53.2a35.9 35.9 0 0 0-1.4 14.2l-.1.5a8.5 8.5 0 0 1-.8-3.5c-.1-3.1.2-6.1.9-9.1l.9-4.1A44.6 44.6 0 0 0 21 62l-.1-.3v-.5c.2-3.5.7-7 1.5-10.4a47.5 47.5 0 0 1 7.2-12.3c.1-.2.2-.4.1-.7l-.6.5A38.2 38.2 0 0 0 21 54.1c-.4 2.5-.5 5-.8 7.5l-.2.3a26 26 0 0 1-.6-5.6l-.4 1.6c-.3-2-.2-4 .1-5.9l.5-3.1c-.9 2.4-1.4 5-1.3 7.5-.1 2.5.2 5 .3 7.5-.7-1-1.1-2.3-1-3.6v-.6c-.6-4.2-.2-8.5 1.3-12.5a20.6 20.6 0 0 1 9.9-12.1c1.9-1.1 3.9-2 5.9-3 .4-.2.7-.3 1.1-.3l-.6.6-3.8 3.2a5 5 0 0 0-.9 1.6c3.4-3.8 7.8-6.6 12.6-8.2-1.1-.1-2 .5-3.2.7l-.3-1.1c-.6 0-.8 1.1-1.5.5-.4-.7-.3-.8.3-.9 1.3-.3 2.7-.3 4.1-.1.7.2 1.5-.4 2-1.3l-2.2.7-.1-.2.4-.6-2.1-.2 2.3-.9c3-1.4 5.5-3.6 7.4-6.3 2.4-3.3 5-6.5 7.8-9.4.6-.7 1.3-1.2 2-1.8l-.3.5A97.3 97.3 0 0 0 52 18.8c-1.8 2.5-3.9 4.7-5.8 7.1-.2.2-.3.5-.3.8l1.2-1.1 4.1-4.7c1.7-2.1 3.2-4.4 4.8-6.6 3.2-4.4 6.9-8.4 11-12l.7-.4-.2.8c-3 2.6-5.5 5.3-7.7 8.4-1.9 2.4-3.6 5-5.3 7.5-.4.6-.7 1.2-.9 1.9l4.1-5.6c1.4-1.9 2.8-3.8 4.4-5.7L67 3.8c.3.7.1 1.5-.5 2.1-2.6 2.5-4.4 5.6-6.6 8.4a42.8 42.8 0 0 0-3.7 6.6c-1.6 3-3 6-4.4 9a9 9 0 0 0-.5 1.3c.6-.1 1-.6 1.2-1.1.6-1.1 1.1-2.2 1.5-3.4A61.8 61.8 0 0 1 65.3 7.9l1.3-1.3.3-.3c.3.6.3 1-.1 1.5a104.3 104.3 0 0 0-9 13.1l-.5 1.4c3-5 6.3-9.8 10-14.2.6.5.7.9.2 1.4a60 60 0 0 0-8.2 11.7c-1.1 2-2 4-2.6 6.2l-.1 1.4c.4 2.2 1.2 4.3 2.3 6.2l.2-.1-.6-2-1.1-3.2a5 5 0 0 1 .2-3.6 48.6 48.6 0 0 1 9-15.1l1.5-1.5c.7.5.2.8 0 1l-3.3 4.2a38.1 38.1 0 0 0-4.7 8c-.8 1.9-1.1 4-.8 6.1l.8 3.2.1.6c-.6-.8-1-1.6-1.4-2.5-.3.3-.4.7-.2 1.1l.9 1.8c1.4 2.1 2.9 4 4.7 5.8l.9 1.5 2 3.8c.5.9.9 1.8 1 2.8.1.6.3 1.1.7 1.6.5.8.6 1.7 1.1 2.6l-.1-1.3c-.5-2.3-1.3-4.5-2.3-6.5-.1-.2-.3-.3-.2-.6 2.1 2.3 2.9 5.3 4.4 8l-.3-2c1.2 1.6 1.2 3.6 2 5.6.3-1.1-.1-1.9 0-2.7l.8 2c1.1 4 1.3 8.1.8 12.2-.5 2-1.5 3.9-3 5.4l.5-1.4.2-1.6a10 10 0 0 1-4 5.7c2.3-3.9 4.5-7.7 4.2-12.5l-.3.8c-.2 3.5-1.5 6.9-3.5 9.7l-1.8 2.5a.2.2 0 0 1-.2-.2l1.3-2c-2 2.3-4.4 4.2-7.1 5.6l.5-.6 5.9-6.2c1.2-1.3 2-2.9 2.5-4.6.8-2.2 1-4.5.6-6.8-.4 2.2-.5 4.2-1.4 6.1L68 68.2a9 9 0 0 1-1.5 1.9c-2.7 2.2-5.1 4.9-8.4 6.5l.4-.5a33 33 0 0 0 5.3-4.6c.6-.7 1.1-1.4 1.5-2.2a54.4 54.4 0 0 1-4.8 4.8l-.5.1.8-.9c2.1-2 3.7-4.5 4.8-7.1 1.2-2.8 2.2-5.7 2.8-8.7.5-2.2.6-4.4.4-6.6 0-.2 0-.6-.2-.7-.8-.7-.7-1.7-.9-2.6a16 16 0 0 0-2.2-5.2c-.7-1-1.1-2-1.7-3.1l-.4-.5-.2 1.5-1-1.9c-.3 1.4.6 2.4.9 3.6l.8 3.6c-.5.2-.8.3-.9-.3-.2-2.3-1.1-4.4-1.7-6.6l-.1-.4-1.7-1.9c-.4.4-.1.7.1 1 .4.4 1 .8 1.1 1.3a73 73 0 0 1 1.4 5c.6 2.8.7 5.6.4 8.4l.7-1.8c0 4.5-.5 8.5-2.6 12.2l-.5 1.2A28 28 0 0 1 53 74.2a5 5 0 0 1-2.7 1.6c1.7-2 3.8-3.3 5.1-5.4a43.1 43.1 0 0 1-7 5.8l.7-.8 3.4-3.2c.6-.6 1.1-1.3 1.5-2L51.3 73l-.3-.2.5-.8c1.4-1.7 2.9-3.4 4.1-5.2a27 27 0 0 0 3.5-8l1.3-4.9.5-2.4c1.1-3.7.3-7.3-.6-10.8l-.6-2-1.4-.4c.1.7.4 1.3.6 1.9 1 2.2 1.2 4.6.6 6.9l-.5 2.7.2.1.7-2.9h.2l.1.5c0 2.8-.5 5.6-1.4 8.2-.6 1.6-.8 3.2-1.3 4.8-1 3.2-2.6 6.1-4.8 8.7l-.4.4-.4.2c.3-.7.8-1.4 1.3-2 .4-.7.9-1.3 1.2-2l.8-2.2a24 24 0 0 1-7.1 8.7l3.8-4.7-.1-.1-1.9 1.8V69l.2-.5c2.1-2.6 3.8-5.5 5.2-8.6 1-2.1 1.5-4.5 1.4-6.8-.6.2-.6.7-.7 1.2-.1.8.1 1.6-.7 2.2l-.1.3c.5 1.3-.3 2.2-.7 3.3a39 39 0 0 1-4.5 7.6c-.5.7-1.2 1.3-1.9 1.9a21 21 0 0 0 4.1-8 23.4 23.4 0 0 1-5.8 8.5l3.3-5.3-.3-.2a32.9 32.9 0 0 1-5.2 6.6l.4-.7A52 52 0 0 0 51 58.1l1.4-4 .9-3.1a24 24 0 0 1 1.2-3.8c.6-1.3.9-2.7 1-4.2.1-2.1 0-4.2-.2-6.2l-.4 1.6-.9 6.4-1.3 6.5-1 3.7c-1.3 4-3 7.9-5.2 11.5a44.6 44.6 0 0 1-7.2 8c1.7-2.6 3.7-4.9 5.1-7.6-.6-.3-.8.1-.9.5-.8 1.7-1.9 3.2-3.2 4.6l-.5.4.7-1.7a110.3 110.3 0 0 0 8.7-24l.7-2.2c.6-1.6 1.3-3.1 1.8-4.7l1-3.4c.3 1.9.2 3.8-.4 5.6l-.2-.8c-.4 1.9-1 3.9-1.3 5.9a42 42 0 0 1-1.4 5.9l-1.9 5.9c-.6 1.9-1.7 3.7-1.9 5.8l.4-.6c1-2.5 2.1-5.1 2.9-7.6 1-3.3 1.8-6.7 2.7-10.1l.8-2.6c.7-1.7 1-3.6 1-5.5l.1-3c0-.1.1-.2 0-.2-1-1.6.1-3.1.3-4.6v-.7l-.3.3-1 4.7-1.8 6.4c-.3 1-.7 1.9-1.2 2.8v-.9a2 2 0 0 0-.4-.6l-1 5.5c-.5 2.8-1.3 5.6-2.3 8.3L43.7 62a4 4 0 0 1-1 1.6c-.5.7-1 1.5-1.3 2.3l-1.9 3.3.1-.8 1.2-3.6 2.1-6.6 1.8-6.1.6-3.3a152 152 0 0 1-7.8 22.7l3.2-11.9a50.3 50.3 0 0 0-3.6 8.1l-1.3 4.1c.7-6.4 3-12.3 5.6-18.1-1.6 2.8-3 5.8-4 8.9l-.2.5c-1.3 2.2-1.7 4.6-2.2 7l-.3.7c-.1-1.1 0-2.2.3-3.3l.8-3.1.9-2.9 1-2.9c-1 1.8-1.8 3.6-2.5 5.6.1-1.8.6-3.6 1.4-5.3-1.2 1.2-1.9 4.7-2.6 7.9-.6 2.7-.8 5.4-1.3 8-.2-9.6 2.3-19 7.2-27.3a37 37 0 0 0-4.7 9.3 68.8 68.8 0 0 0-2.9 10.1c-.6-1.3 0-2.5.1-3.8.1-1.3.3-2.5.7-3.7.4-1.3.6-2.6.8-3.9l-1.6 4.6c.3-2.5 1.1-5 2.2-7.3 1.8-3.7 3.8-7.2 6.1-10.6l1.6-2 5.3-5.3c.2-.2.4-.3.7-.2l-.5.7-5.4 6.9-.5 1.2a70 70 0 0 1 8.4-10.3c-3 .2-4.7 2.2-6.3 4.1a63.4 63.4 0 0 0-5.1 6.5c-1.4 2.1-2.6 4.5-3.8 6.8a36.6 36.6 0 0 0-4.2 14.2c0 .4-.1.8-.4 1.1l-.3-3.3c-.7 3.7-.8 7.5-.3 11.3l-.3-.5-1-4.7v-.6c.9-1.5.4-3.1.5-4.7a41.8 41.8 0 0 1 4.2-16.3c.9-1.6 1.8-3.1 2.9-4.5.3-.4.5-.8.6-1.3-.2.1-.4.1-.5.3a35 35 0 0 0-7.5 21.8c-.1 1.1-.3 2.2-.7 3.2-.4-1.4-.7-3-.6-4.5v-6.5a55.8 55.8 0 0 0 1.7-4.7l.1-.8a30 30 0 0 0-3.6 11.1c-.5 3.8-.1 7.7 1.2 11.4-2.3-3.9-2.1-7.9-1.5-11.9zm20.2-15.1-1 1.9.2.1 1.1-1.8-.3-.2zm7-19.4a23.2 23.2 0 0 1-6.6 7 31 31 0 0 0-7.3 7.6c-.6.7-.9 1.7-.9 2.6l.7-1.6c1.8-3.1 4.2-5.7 7.1-7.7l2.1-1.4 1.5-1.6c2.1-2 4-4.2 4.6-7.2l-1.2 2.3zm-.8 9c-.5.6-.8 1.3-1 2.1-.6 2.1-1.5 4.2-2.6 6.2l-1.6 3.1 1.5-2.2c.5-.7.6-1.6 1.4-2.1.1-.8.5-1.5 1.2-2 .2-.3.4-.8.4-1.3 0-1 .2-1.9.6-2.8l.3-.9-.2-.1zm-1.1-.3L49.2 38c-.7 1.9-1.7 3.7-2.8 5.4l-.7 1.3c1-1.1 1.8-2.4 2.6-3.6l.8-1.6 1-2.3 1.4-3.1c.1-.3.1-.7-.3-.8-.9.9-6 8.8-6.2 9.7l5.5-8.2.1.1zm3.7 1c-.2 2-.3 4.1-.7 6.1s-1.1 4-1.6 6c1.7-3.9 3-7.8 2.7-12l-.4-.1zm-15.7 3.5c1-.7 1.1-.9 1.3-1.8-.5.7-1.2 1-1.3 1.8zm18.9 10.5c.4-.5.4-1.2.2-1.8-.4.5-.5 1.2-.2 1.8zm-.9-13.3.1 1.1.7 2.7c.4 1.2.5 2.4.2 3.6l-1.3 5.1a14 14 0 0 0 1.9-6.4c.1-2.1-.7-4-1.2-6l-.4-.1zM72 54.4l.8 3.7c.4-1.3.3-2.8-.5-3.9l-.3.2zM55.9 34.9v-3.8c-.7 2.5-.7 3 0 3.8zm2.6-5.4c.4-1.1.4-1.9-.2-2.5-.2.8-.1 1.7.2 2.5zm-3.6-2.4c.8-1 .8-1 .8-2l-.8 2zm-4.5-3.4.2.2 1.5-1.9-.3-.2-1.4 1.9zm5.3-3.4c.3-.4 1-.6.7-1.5l-.7 1.5zM20.8 66.2l.2-.1.4 1.1-.2.1-.4-1.1zm7.3 3 .2.7.2 1.3c-.5-.5-.6-1.3-.4-2zm-18-14.7.5 5.4h-.3a14 14 0 0 1-.2-5.4zm33.6 23.9 1-.6 2.1-1.6c-.4.9-1.1 1.5-2 1.8l-.9.7-.2-.3zM14.5 55.5l.3-.1 1.4 6.5-.3.5c-.8-2.2-1.2-4.5-1.4-6.9zm16.2 11.2.8-.1-.2 3.7h-.4l-.2-3.6zm-3.7 0c-.1-.4.1-1-.6-1l-.1-.6c-.1-2.4.1-4.7.6-7l.2-.3V63c.1 1.7.4 3.3.6 5l-.4.1-.3-1.4zm25.2 11.7c3.5-1.7 6.5-4.3 8.8-7.4.5-.7.8-1.5 1.1-2.3-1.3 1.8-2.5 3.8-4.5 5l3.6-4.8a26 26 0 0 0 2.9-6.9c.4-1.1.6-2.4.5-3.6l-.4.7a27 27 0 0 1-5.8 13l-.9.8-.5.9v.6l-4 2.8a2 2 0 0 1-1.1.3l1-.8 4-3.5.5-.3.8-1.4-.1-.2-3.5 2.4-.1-.2 1.7-2c1.8-2.2 3.3-4.6 4.3-7.2l1.1-2.6c1.3-2.8 2-5.9 2.1-9 .1-1.2.2-2.4.5-3.5.3-2.4.2-4.8-.5-7l-.2-1.2c.7.6 2.2 3.6 2.6 5.2.3 2 .4 3.9.1 5.9.7-1.5.5-3.1.8-4.6.6 1.6.8 3.2.6 4.9l.6-1.1.2.9c.1 2.5-.2 4.9-.9 7.3-.5 1.4-.7 2.8-1.2 4.1-.8 1.8-1.6 3.5-2.6 5.2a23 23 0 0 1-7 7.3c-1.8 1.9-4.3 2.8-6.7 3.8h-.5l2.7-1.5zM38 68.2l-1 3.3c0-1.2.3-2.3 1-3.3zm1.6 3.3-.2.6.2-.6zm4.6 2.4.9-.8.1.2-.9.9-.1-.3zM9.7 49.2l-.3 2.9c-.3-.9-.2-2 .3-2.9zm45.2 25 .1.2c-.7.4-1 1.2-2 1l1.9-1.2zM67.3 76c1.1-1.2 2.4-2.3 3.8-3.1-1.8 3-4.6 4.8-7.5 6.4 1-1.4 2.6-1.9 3.7-3.3zM28.6 34.1a22 22 0 0 1 8.4-4.3 3 3 0 0 0 1.1-.6l-.8.9-4.1 2.2-3.5 1.7-.9.3-.2-.2zm26.3 10.4c.2 1 .2 1-.4 1.8l.4-1.8zM35.2 28.2a.5.5 0 0 0-.5-.3c2.3-.5 4.7-.8 7-.7l.1.3-.5.2-5.3.8-.5-.1c-.2 0-.3-.1-.3-.2zm2.5-1.4-4.1.5c.7-.7 2.5-.9 4.1-.5zM62.4 5.4l-.7 1c-.1-.4.2-.9.7-1zm0 0zm0 0zm.8-1.2a140 140 0 0 1 4-3.8l.7-.3-.1.7-5.4 4.7.8-1.3zm5.6 4.5c-.6-.6-1-1.4-1.1-2.2-.1-1.3 0-2.5.4-3.8l.6-2.1h.3l.4 1.4.5 6c0 .3-.2.6-.4.8-.1.2-.4.1-.7-.1 0 .1 0 .1 0 0z"></path></svg>