<svg xmlns="http://www.w3.org/2000/svg" viewBox="0 0 40 40"><path d="M33.9 8.4h-8.5v-7c0-.5-.2-.9-.6-1.1-.4-.2-.9-.3-1.3-.1L5.6 8.5c-.3.1-.5.3-.7.6l-.1.4v29.1c0 .7.6 1.4 1.4 1.4H34c.7 0 1.4-.6 1.4-1.4V9.7c-.2-.7-.8-1.3-1.5-1.3zm-11.3 0H12.2l10.4-4.9v4.9zm9.9 28.9h-25V11.1h25v26.2zM21.4 16.6c0-.8-.6-1.4-1.4-1.4-.8 0-1.4.6-1.4 1.4-4 .6-7 4-7 8.2 0 .7.6 1.4 1.4 1.4h13.9c.7 0 1.4-.6 1.4-1.4 0-4.1-3-7.5-6.9-8.2zm-6.8 6.8a5.6 5.6 0 0 1 10.8 0H14.6zm10.8 7.5c0 .7-.6 1.4-1.4 1.4h-8c-.8 0-1.4-.6-1.4-1.4s.6-1.4 1.4-1.4h8c.7.1 1.4.7 1.4 1.4z"></path></svg>