<svg xmlns="http://www.w3.org/2000/svg" viewBox="0 0 60 60"><path d="M60 20.1v10.4c-.7 1.7-2.3 1.3-3.7 1.4V54c.2 2.1-1.4 4-3.4 4.1H8c-.5 0-.9 0-1.4-.2A3.8 3.8 0 0 1 3.8 54V31.8H2.2A2 2 0 0 1 0 30.1V21a3.9 3.9 0 0 1 3.6-4.2h.6c3.6.1 7.1 0 10.7 0h.6l-.8-.8a7.6 7.6 0 0 1-3.2-7.6c.3-3 2.4-5.4 5.3-6.2 2.9-1 6-.1 8 2.1 1.8 2.1 3.2 4.5 4.2 7.1.7 1.6 1 3.3.9 5l.1.3.1-.6.2-2.3c.8-3.4 2.4-6.5 4.6-9.2a7.7 7.7 0 0 1 13.8 5.2 7.8 7.8 0 0 1-3.4 6.1l-.9.7h11.4c.7 0 1.4.2 2.1.4a5 5 0 0 1 2.1 3.1M7.5 54.3h20.6V31.9H7.5v22.4zm45-22.4H31.9v22.4h20.6V31.9zM3.8 28.1h24.3v-7.4H3.8v7.4zm28.1 0h24.3v-7.4H31.9v7.4zM15 9.7c0 1.2.5 2.3 1.4 3a17.5 17.5 0 0 0 8.2 4c1.9.4 1.8-.2 1.4-1.6-.7-3-2-5.8-4-8.1a4 4 0 0 0-4.5-1.1A4 4 0 0 0 15 9.7m30 0A4 4 0 0 0 42.5 6 4 4 0 0 0 38 7.1a18.9 18.9 0 0 0-3.1 5.3l-1 3.6c-.1.5.1.9.7.8l1.3-.1c2.9-.7 5.6-2.1 7.8-4 .8-.7 1.3-1.9 1.3-3"></path></svg>