<svg xmlns="http://www.w3.org/2000/svg" viewBox="0 0 60 60"><path d="m18.3 60-13-2.5a2.8 2.8 0 0 1-2.2-2.9 3 3 0 0 1 2.4-3.2c.6-.1 1.2 0 1.8.1l4.6.9 2.4-13.1-2.3-1.9a12.4 12.4 0 0 1-2.9-6.6c-.6-3.7-.4-7.4.5-11 1.2-5 3-9.9 5.4-14.5.5-1 .8-1.1 1.9-.9l10.5 2c1 .2 1.3.5 1.4 1.5a53.5 53.5 0 0 1-2.4 22.4 16.9 16.9 0 0 1-5.4 7.5 8 8 0 0 1-3.9 1.6c-.2 0-.4.2-.5.4l-2.4 12.7v.2l4.8.9a3 3 0 0 1 2.7 3.2l-.2.9c-.4 1.2-1.5 2-2.7 2.1-.1.2-.3.2-.5.2zM5.4 54.3c-.1.5.1.7.7.9l12.3 2.4c.6.1 1-.1 1-.9 0-.4-.3-.5-.7-.6L6.3 53.7H6c-.3 0-.5.2-.6.6zm8-18.8c.6.8 1.5 1.4 2.5 1.6a5 5 0 0 0 3.9-1.2c1.8-1.5 3.1-3.3 4-5.5l.9-2H11.1c.2 2.7.7 5.1 2.3 7.1zm11.3-9.4c.5 0 .7-.2.8-.7a46 46 0 0 0 1.1-11.1l-.2-5.5-9.7-1.9c-3 6.1-5.3 12.3-5.8 19.2h13.8zm13.6 31.5c-.5-1.5.4-3.1 2-3.6l.2-.1 4.6-.9.7-.1-2.6-13.2c-3.7-.3-6-2.7-7.8-5.5-2.1-3.3-3.4-7-3.9-10.9-.7-4.8-.9-9.6-.5-14.4.2-2 .2-2.1 2.2-2.4L43 4.6c1-.2 1.4-.1 1.9.8 3 5.4 5 11.3 6 17.5.7 3.9.3 8-1.2 11.7a8.6 8.6 0 0 1-3.9 4.5l-.2.4 2.5 12.7.1.2 5-1a3 3 0 0 1 3.6 2l.1.3c.5 1.5-.4 3.1-1.9 3.6l-.4.1-12.8 2.5-.6.1a3 3 0 0 1-2.9-2.4zm15.3-3.9-12.3 2.4c-.5.1-.8.3-.7.9.1.6.3.7.9.6l6.4-1.2 5.9-1.2c.4-.1.7-.2.7-.7 0-.5-.2-.8-.7-.8h-.2zM37.2 32.6c.9 1.6 2.1 2.9 3.6 3.9.9.6 2 .9 3.1.8a4.7 4.7 0 0 0 3.3-2.8c1.5-3 1.8-6.1 1.6-9.4H34.2c.6 2.6 1.6 5.1 3 7.5zM33.4 8.8a58 58 0 0 0 .4 13.8h14.7c-1-5.5-2.9-10.7-5.4-15.7l-9.7 1.9zM29.2 6a2 2 0 0 1-.6-1V1.3c0-.5.3-1 .8-1.2h.6c.6.2 1 .9.9 1.5V5c0 .7-.5 1.2-1.1 1.3l-.6-.3zm3.9-1.2c-.4-.3-.6-.8-.4-1.2.5-1 1.1-2 1.8-2.9.3-.4.8-.5 1.2-.2.5.2.7.6.7 1.3A9.9 9.9 0 0 1 34.3 5h-.5l-.7-.2zm-7.9-.1-1.7-2.9c-.2-.5 0-1.1.5-1.3.4-.3 1-.2 1.4.2l1.8 2.9.1.3.1.1-.9.9-.5.1c-.4.1-.6-.1-.8-.3z"></path></svg>