<svg xmlns="http://www.w3.org/2000/svg" viewBox="0 0 80 80"><path d="M80 23.3v-.1c-.6-2.4-2.2-4.3-5-5.9-1.3-.8-2.7-1.4-4.1-2a78 78 0 0 0-22.7-4.5 110.3 110.3 0 0 0-36.3 3.4c-3.2.9-6.2 2.3-8.8 4.3a7.8 7.8 0 0 0-3.2 6.6v6.8l.1 1.3c.5 2.6 2.3 4.1 4 5.3 2.5 1.7 5.3 2.9 8.2 3.7a86 86 0 0 0 18.9 3.3l2.4.2h.6v4.7l-1.2.2-3.5.6c-2.3.4-4.5 1.3-6.5 2.6-1.3.8-2 2.3-2 3.8v4.2c-.2 1.7.7 3.3 2.1 4.1a20 20 0 0 0 4.2 1.9c3.5 1.1 7.1 1.6 10.7 1.6l2.4.1c4 0 8-.5 11.8-1.6 1.8-.4 3.5-1.2 4.9-2.4a4.2 4.2 0 0 0 1.7-3.6v-4.3c.2-1.7-.7-3.3-2.2-4.1-1.4-.8-2.9-1.5-4.5-2-1.6-.4-3.2-.8-4.8-1l-1.7-.3v-4.6h.2c4.7-.2 9.4-.7 14-1.6 4.6-.7 9.1-2.1 13.4-4.1 2.8-1.4 5.6-3.2 6.7-6.8V33l.2-9.7zM42.2 54.6c0 .2-.1.3-.3.4a5 5 0 0 1-3.8-.1l-.1-.1v-9h4.3v3.4c-.2 1.8-.2 3.5-.1 5.4zm3.6-.5V54c2.7.3 5.3.9 7.8 1.9l.9.5c.8.5.8.7.8.8 0 0 0 .3-.8.7l-2.1.9a45.3 45.3 0 0 1-23.3.4 15 15 0 0 1-3.3-1.3c-.5-.2-.9-.7-1-.8 0-.2.5-.7.9-.9l3.9-1.5 3.5-.7 1.1-.2v1.4c-.1.9.4 1.7 1.1 2.1a8.5 8.5 0 0 0 9.4 0c.7-.4 1.1-1.2 1.1-2.1v-1.1zm-21.1 7.5A37.4 37.4 0 0 0 40 64.2c4.7 0 10.2-.3 15.3-2.6.1 1-.2 1.3-1.3 1.8a22.7 22.7 0 0 1-7.2 2A45.8 45.8 0 0 1 26 63.5c-1.1-.6-1.3-.8-1.3-1.9zm8.5-19.7c-6-.3-13.9-1.1-21.5-3.8-2-.8-3.9-1.7-5.7-2.8-.5-.3-1-.7-1.4-1.2-.7-.6-1-1.5-1-2.5v-1.4c3.3 2.4 7.1 3.6 10.3 4.5a115.6 115.6 0 0 0 34.6 2.8 81 81 0 0 0 22-4.3c2.1-.7 4-1.8 5.8-3v1.9c-.1 1-.6 1.9-1.4 2.5a15 15 0 0 1-4.7 2.8 60 60 0 0 1-12.4 3.4c-8.1 1.3-16.4 1.7-24.6 1.1zm8.7-7.1zm32.6-7.7a21 21 0 0 1-6.7 3.3A65.2 65.2 0 0 1 52 33.6c-2.9.3-5.9.4-8.1.5l-2 .1c-11.3-.1-18.9-.9-26.1-2.8-3.1-.7-6.1-1.9-8.9-3.4a13 13 0 0 1-2.3-1.8c-.7-.7-1.1-1.4-1-2.1 0-.7.4-1.3 1.1-1.9a17 17 0 0 1 3.9-2.7c4.1-1.9 8.5-3.2 13-3.8a114.5 114.5 0 0 1 29.7-.9c6.1.5 12 1.7 17.8 3.7 2 .7 3.8 1.6 5.5 2.9 1.3 1 1.9 2 1.9 2.9-.1.8-.8 1.8-2 2.8zm2.4 2.1z"></path></svg>