<svg xmlns="http://www.w3.org/2000/svg" viewBox="0 0 60 60"><path d="M25.1 60c-.8-.6-.9-.9-.6-2a12 12 0 0 1 2.9-5.3l1.6-1.8a6.8 6.8 0 0 0 1.9-6.6c-.4-1.9-1-3.7-1.6-5.5-.1-.2-.3-.3-.4-.3h-1.1c-.5 0-.9-.3-1.1-.8-.2-.5 0-1 .3-1.3l.6-.6-3.9-2.8a25 25 0 0 1-8.2-14.1 15.5 15.5 0 0 1 8.6-17.4c5.6-2.5 11-1.6 15.5 2.7 4.8 4.5 6 10.2 4.3 16.6a25 25 0 0 1-9.4 13.6l-2.3 1.4.5.5c.5.4.7 1 .5 1.5-.2.5-.7.9-1.3.8h-.3l.6 1.9c.4 1.4.7 2.8.9 4.3a9 9 0 0 1-2.4 7.5l-2.5 3c-.8 1-1.4 2.2-1.7 3.5-.1.6-.4 1-.9 1.3l-.5-.1zM20.5 7.2a13.1 13.1 0 0 0-2.9 9.1A22.7 22.7 0 0 0 26.3 32a15 15 0 0 0 2.8 1.5c1.3.5 2.5-.2 3.7-.9 2.3-1.5 4.2-3.4 5.7-5.7a20 20 0 0 0 4-11.2c0-1.6-.3-3.3-.8-4.8-2-4.9-5.5-7.8-10.5-8.3l-1.5-.1c-3.6 0-6.7 1.6-9.2 4.7zm.4 9.6c-.6 0-1.1-.6-1.1-1.2v-.4c.1-5 4-9.5 8.7-10.2l1.4-.1c.6 0 1.2.4 1.2 1.1a1 1 0 0 1-1 1.2H30c-1.5 0-3 .5-4.2 1.3a8.5 8.5 0 0 0-3.7 6.3l-.1.8c0 .8-.5 1.2-1.1 1.2z"></path></svg>