<svg xmlns="http://www.w3.org/2000/svg" viewBox="0 0 60 60"><path d="m60 37.2-.7 3.7a18.8 18.8 0 0 1-28.9 10c-.2-.2-.6-.2-.9 0a18.6 18.6 0 1 1-14-33.3c4.9-.9 10 .3 14 3.2l.2.2.1.1c1.7-1.3 3.7-2.3 5.8-2.9 2.1-.6 4.3-.9 6.5-.8l-1.2-2.1c-1.5-2.6-1.4-1.8-.6-4.6l.9-3.4c.1-1 1-1.7 2-1.5l.4.1 10.6 2.8c.9.2 1.6 1.1 1.4 2l-.1.2-1.4 5.2c-.1.6-.5 1-1 1.3l-3.5 2 .6.3c5.4 2.9 8.9 8.3 9.6 14.3l.1.4.1 2.8zm-27.2 11a15 15 0 0 0 19.5-2 14.8 14.8 0 0 0-.2-21 15 15 0 0 0-19.3-1.8c6.2 8.3 6.2 16.5 0 24.8m-5.5-.1c-6.3-7-6.3-17.6 0-24.7a15.2 15.2 0 0 0-19.7 2 15 15 0 0 0 .3 21 15.2 15.2 0 0 0 19.4 1.7M30 25.8c-5.6 6-4.8 15.2 0 20a14.8 14.8 0 0 0 0-20m16.3-8.6 4.5-2.6.3-.3.8-2.8-7.5-2-.8 2.9.1.4 2.6 4.4"></path></svg>