<svg xmlns="http://www.w3.org/2000/svg" viewBox="0 0 80 80"><path d="M38.3.2h3.4l.4.1c6.2.7 11.7 4.2 14.8 9.4.2.4.7.6 1.2.5a19.8 19.8 0 0 1 12.4 36.6c-.4.2-.6.7-.6 1.1v23.9c0 4.8-3.2 8-8 8h-44c-4.8 0-8-3.2-8-8V48a1 1 0 0 0-.7-1.2A19.7 19.7 0 0 1 .5 34.3L0 31.8v-3.4l.5-2.6a20 20 0 0 1 21.4-15.5c.5.1 1-.2 1.2-.6 2.5-4.1 6.3-7.1 10.9-8.5 1.4-.5 2.8-.7 4.3-1M65 59.9V59c0-4.1.1-8.2 0-12.3-.2-1.6.7-3 2.2-3.6a14.8 14.8 0 0 0-4.7-27.8l-2.9-.2.5 4.9c.1 1.3-.9 2.5-2.3 2.6h-.2a2.5 2.5 0 0 1-2.5-2.5l-.2-2.3A15 15 0 0 0 25 20.1c0 1.4-1.1 2.5-2.5 2.5S20 21.5 20 20.1V20l.1-1.5.5-3.4-2.5.2A15 15 0 0 0 5 29.7c-.2 5.8 3 11.1 8.2 13.6a3 3 0 0 1 1.8 3v13.6h50zm0 5H15v6.9c0 2.1.9 3 3 3h44.6c1.3-.1 2.3-1 2.3-2.3l.1-7.6"></path></svg>