<svg xmlns="http://www.w3.org/2000/svg" viewBox="0 0 60 60"><path d="M60 52.6c-.3.9-1.3 1.5-2.2 1.4H2.3C.6 54 0 53.4 0 51.8v-28a2 2 0 0 1 1.5-2.2L27 11.7c.3-.1.6-.4.6-.7a6.5 6.5 0 0 1 7.6-4.9c.8.2 1.6.5 2.3 1 .3.3.7.3 1 .1l.8-.3c2-.9 4.2-1.1 6.3-.5 4.4.9 8.4 3.4 11.1 7 1.9 2.5 3 5.4 3.3 8.5l.1.6v30.1zm-3.5-18.3-.4.1a13.5 13.5 0 0 1-13.7-1 .6.6 0 0 0-.8 0 13.4 13.4 0 0 1-15.3 0 .8.8 0 0 0-.9 0 13.2 13.2 0 0 1-15.2 0c-.2-.2-.6-.2-.9 0-1.5 1-3.1 1.7-4.9 2.1l-1 .2v14.8h52.9l.2-16.2zM3.6 32.1a9.5 9.5 0 0 0 5-2.5c.5-.5 1.2-.7 1.8-.4l1 .7a10 10 0 0 0 13.3-.3c.7-.7 1.7-.7 2.4-.1l.1.1.4.4a10 10 0 0 0 13.1-.4c.7-.7 1.8-.8 2.5-.1l.1.1.4.4a10 10 0 0 0 12.4.2l.3-.4v-4.4H3.6v6.7zm7.1-10.3 45.8.1c-.4-1.3-.8-2.6-1.4-3.9a14.8 14.8 0 0 0-11.5-8.2c-1.3-.2-2.6.1-3.7.8 1 3.4-1 7-4.4 8-3 .9-6.2-.6-7.6-3.4l-17.2 6.6m26-9.5c0-1.6-1.3-2.8-2.8-2.8a2.9 2.9 0 0 0-.1 5.8 3 3 0 0 0 2.9-3"></path></svg>