<svg xmlns="http://www.w3.org/2000/svg" viewBox="0 0 60 60"><path d="m60 32.2-.7 3.5c-2 7.5-8.5 12.9-16.2 13.5-1.4 0-2.8.2-4.1.4-3.1.7-5.8 2.7-7.3 5.6-.6 1-1.4 1.4-2.3 1-.4-.2-.7-.5-1-.9-2-3.8-5.9-6.1-10.2-6A18.6 18.6 0 0 1 .1 32.5L0 31V16.1c-.1-1 .6-1.8 1.6-1.9l.8.1c.7.3 1.1.9 1.1 1.6 0 2.9 2.3 5.3 5.2 5.3h3.5c-2.4-4-2.4-7.8.7-11.3 2.6-2.9 5.9-3.4 9.6-2.2a8.8 8.8 0 0 1 14.8 0c4-1.2 7.5-.5 10.2 2.8 2.4 3 2.4 6.3.2 10.7 1.7-.1 3.4.2 5-.3a5.3 5.3 0 0 0 3.7-4.9c-.1-1 .7-1.8 1.6-1.9.8-.1 1.5.4 1.8 1.2l.1.1.1 16.8zM30 51.3l.2-.3c2.5-2.9 6-4.8 9.8-5.1l3.6-.3a15 15 0 0 0 12.9-15v-7.7a9.4 9.4 0 0 1-5.8 1.7h-8.1a14 14 0 0 0-7.7 2.2 9.2 9.2 0 0 0-3.2 3c-.6.8-1.8 1-2.6.4l-.5-.5-.5-.7A14.1 14.1 0 0 0 18 24.7H9.2c-1.8 0-3.5-.5-5-1.5l-.4-.2v8a15 15 0 0 0 14.8 14.8c2.5 0 5.1.6 7.3 1.9 1.4.9 2.9 2.1 4.1 3.6m1.8-26.6.6-.4c2.6-1.8 5.6-2.8 8.8-3.1a5.3 5.3 0 0 0 4.8-5 5 5 0 0 0-2.6-4.7c-1.7-1-3.8-1-5.5 0a3 3 0 0 1-1 .4c-.9.2-1.8-.4-2-1.3a5.2 5.2 0 0 0-9.8 0c-.2.9-1.1 1.4-2 1.2-.3-.1-.7-.2-.9-.4a5.1 5.1 0 0 0-5.8.3 4.8 4.8 0 0 0-2.1 5.3c.3 2 1.9 3.6 3.9 4.1l1.7.2c2.9.5 5.7 1.6 8.1 3.2l.3.2v-5.2c0-1 .7-1.8 1.7-1.8s1.8.7 1.8 1.7v5.3"></path><path d="M37.5 42.3h-3.7c-1 .1-1.9-.6-2-1.6v-.4a12.4 12.4 0 0 1 12.6-12.1h6.7c1-.1 1.9.6 1.9 1.6v.4a12.3 12.3 0 0 1-12 12.1h-3.5zm11.8-10.6H44a8.7 8.7 0 0 0-8.5 7h5.2c4.1 0 7.7-2.9 8.6-7M22.5 42.4A34 34 0 0 1 17 42c-5.7-1-9.9-6-10-11.9-.1-1 .7-1.8 1.6-1.9h7.5c6.6.2 11.8 5.5 12 12.1.1 1-.6 1.9-1.6 2h-4.1l.1.1m2-3.5v-.5c-.9-3.4-3.7-6-7.3-6.5-1.8-.2-3.7-.1-5.5-.1h-.8v.4c1 3.4 3.1 5.7 6.6 6.4 2.2.2 4.6.3 7 .3M30 10.7c1 0 1.8.8 1.8 1.7 0 1-.8 1.8-1.7 1.8-1 0-1.8-.8-1.8-1.7 0-1 .7-1.8 1.7-1.8m-10.7 7c-1 0-1.8-.8-1.8-1.8s.8-1.8 1.8-1.8 1.8.8 1.8 1.8-.8 1.8-1.8 1.8m23.1-1.8c0 1-.8 1.8-1.7 1.8-1 0-1.8-.8-1.8-1.7 0-1 .8-1.8 1.7-1.8 1 0 1.8.8 1.8 1.7"></path></svg>