<svg xmlns="http://www.w3.org/2000/svg" viewBox="0 0 80 80"><path d="M52.9 80H18c-1.4 0-2.4-.6-2.6-1.8a3 3 0 0 1 .3-1.9l9.1-22.5 12.8-31.6.2-.5c.3-1 1.2-1.7 2.2-1.7 1 0 1.9.7 2.2 1.7l3.7 9.2 18.3 45.2.2.5c.6 1.2.1 2.6-1.1 3.1-.3.2-.7.3-1.2.3h-9.2zm-7.3-34.9C39.8 51 34 57 28 62.8a18.6 18.6 0 0 0-5.1 7.8c-.4 1.3-1 2.6-1.5 3.8l-.3.8.4.1H31c.4 0 .7-.2 1-.5l18.4-18.6c.3-.3.4-.8.2-1.1L46.9 46l-.6-1.6-.7.7zm-7 30.2h20.2l-5.9-14.5-14.3 14.5zm-9.2-20.7.1.1.3-.3L44 40.1c.3-.3.4-.7.2-1.1l-3.9-9.6-.4-.7-10.5 25.9zm16.3-33.1-5.1-5.1-.5-.8-5.7 5.8c-.4.4-.9.7-1.5.9-1 .2-2-.3-2.4-1.2-.5-.9-.3-2 .3-2.7l2.7-2.8.7-.6-.1-.2-.6-.1h-4.1c-1.3 0-2.3-1-2.3-2.2v-.1c0-1.3.9-2.3 2.2-2.4h.1c1.6 0 3.1 0 4.8-.2L31 6.6c-.6-.5-.9-1.2-.8-2 0-.9.6-1.7 1.5-2a2 2 0 0 1 2.4.5 37 37 0 0 0 3.6 3.5V2.2c0-1.2 1-2.2 2.2-2.2 1.2-.1 2.3.9 2.3 2.1l.1 3.7v.7l.6-.4 2.6-2.6c1.1-1.2 2.5-1.3 3.5-.3s.9 2.4-.3 3.6l-3.2 3.3h4.9c1.3 0 2.3 1 2.4 2.2l-.1.7c-.2 1-1.2 1.8-2.2 1.7h-4.7l-.1.2 3.2 3.2c.6.6.9 1.4.8 2.3-.1.8-.8 1.5-1.6 1.8l-.7.1a3 3 0 0 1-1.7-.8z"></path></svg>