<svg xmlns="http://www.w3.org/2000/svg" viewBox="0 0 40 40"><path d="M18.3 16.5c.2.2.4.6.3.9 0 .6-.5 1.2-1.1 1.2H17l-.5.1a4.2 4.2 0 0 0-3.4 2.6c-.1.3-.3.6-.6.7l-.6.1-.4-.1h-.1c-.3-.1-.6-.4-.7-.7v-1.1c1-2.5 3.3-4.2 6-4.3h.6c.5.2.8.3 1 .6zM40 29.2v1.2l-.1.3a3.2 3.2 0 0 1-2.8 2.2H3.2a3 3 0 0 1-2.4-1.2c-.8-.9-.9-2.1-.4-3.2a2.8 2.8 0 0 1 2.7-1.8h.6c.2-8.4 6.8-15.3 15.1-16v-1h-1.2c-.4 0-.8-.1-1.1-.4-.2-.2-.3-.5-.3-.9 0-.3.1-.7.4-.9.2-.2.6-.4.9-.4h5.2l.9.3c.3.2.4.5.5.9v.1c0 .7-.6 1.3-1.3 1.3h-1.4v1.1c8.3.7 14.9 7.6 15.1 16h.4a3 3 0 0 1 3.1 2.4zm-6.2-2.5A13.9 13.9 0 0 0 20 13.4h-.1A14 14 0 0 0 6.2 26.7h27.6zm3.1 2.6h-34l-.3.2-.1.4c0 .2.2.3.4.4h34c.3 0 .5-.2.5-.5s-.2-.5-.5-.5z"></path></svg>